<?xml version="1.0" standalone="no"?>
<!DOCTYPE svg PUBLIC "-//W3C//DTD SVG 20010904//EN"
 "http://www.w3.org/TR/2001/REC-SVG-20010904/DTD/svg10.dtd">
<svg version="1.0" xmlns="http://www.w3.org/2000/svg"
 width="1080.000000pt" height="1080.000000pt" viewBox="0 0 1080.000000 1080.000000"
 preserveAspectRatio="xMidYMid meet">

<g transform="translate(0.000000,1080.000000) scale(0.100000,-0.100000)"
fill="#000000" stroke="none">
<path d="M0 6289 c0 -4285 1 -4512 17 -4525 17 -13 17 -14 1 -8 -10 3 -18 1
-18 -5 0 -6 7 -11 16 -11 9 0 14 -8 13 -18 -3 -32 1 -53 9 -48 4 2 13 -4 20
-15 7 -10 8 -19 4 -19 -4 0 -17 -7 -28 -16 -18 -15 -18 -15 2 -5 12 6 24 7 28
4 3 -3 6 -1 6 6 0 7 5 9 10 6 6 -3 13 0 16 9 3 8 12 12 20 9 8 -3 21 0 29 7 8
7 15 10 15 6 0 -7 64 25 90 45 16 11 9 10 -37 -8 -17 -6 -17 -5 -2 13 9 10 15
28 13 39 -3 22 12 36 32 28 9 -3 10 -11 3 -29 -5 -15 -5 -23 0 -20 5 4 11 1
13 -5 2 -7 9 -5 17 5 12 14 12 16 -1 11 -9 -4 -15 0 -15 9 0 8 4 13 9 10 4 -3
11 2 14 10 3 9 11 13 17 9 6 -3 7 -1 3 6 -5 8 -1 11 16 8 12 -2 17 -2 11 0 -8
3 -2 13 15 28 29 25 26 43 -5 26 -14 -7 -26 -6 -43 2 -30 15 -38 37 -13 37 14
0 15 -2 5 -9 -10 -6 -8 -10 9 -14 14 -4 27 -1 31 6 6 9 8 9 8 -2 0 -11 3 -11
16 0 14 11 13 14 -8 26 -13 7 -16 12 -8 11 26 -4 81 26 77 42 -2 8 -9 14 -15
12 -7 -1 -12 2 -12 8 0 13 2 13 36 -5 27 -14 29 -13 42 10 7 13 21 29 32 35
12 6 18 16 14 21 -4 7 1 7 14 0 13 -7 19 -17 16 -26 -7 -18 -21 -19 -27 -2 -4
9 -6 9 -6 -1 -1 -7 -6 -10 -11 -7 -9 5 -12 -1 -9 -21 0 -3 -10 -15 -23 -26
-20 -19 -21 -20 -3 -13 11 4 29 9 40 12 16 4 17 3 5 -6 -8 -6 -10 -11 -5 -11
6 0 3 -5 -5 -11 -12 -9 -12 -10 3 -5 10 3 26 6 34 6 12 0 13 3 4 13 -6 8 -8
17 -4 20 6 6 -11 11 -29 8 -11 -1 -10 17 1 23 5 4 11 1 13 -6 3 -8 15 -2 33
17 16 17 26 23 22 13 -3 -10 -2 -20 3 -23 6 -4 10 -3 11 2 0 4 2 16 4 26 3 17
-5 21 -35 18 -13 -2 -13 0 -1 8 10 6 21 6 32 0 12 -6 20 -5 24 1 4 6 12 8 18
4 7 -3 4 1 -6 9 -18 15 -14 47 5 47 6 0 6 -6 -1 -14 -10 -12 -8 -17 7 -25 11
-6 22 -7 26 -4 8 8 8 -11 0 -31 -3 -9 -13 -16 -21 -16 -8 0 -12 4 -9 9 7 11
-21 8 -31 -4 -4 -4 -2 -5 4 -1 9 5 12 -4 9 -33 -2 -22 1 -45 5 -53 7 -10 9
-10 10 2 1 8 0 23 -1 33 -1 11 18 36 46 61 36 33 43 44 31 49 -9 3 -18 1 -21
-6 -2 -7 -5 -4 -5 6 -1 9 -7 17 -14 17 -7 0 -13 9 -13 19 0 11 3 18 7 15 4 -2
10 2 13 8 3 7 3 3 1 -9 -9 -34 12 -36 31 -3 10 16 22 30 27 30 4 0 6 -4 2 -9
-3 -6 4 -15 16 -21 15 -8 19 -9 15 -1 -4 6 -3 11 2 11 6 0 12 -7 16 -15 6 -17
32 -20 41 -6 3 6 -3 8 -13 6 -27 -5 -46 30 -27 49 11 10 11 16 3 18 -7 3 -5 7
5 11 13 5 17 1 17 -19 0 -16 -4 -23 -11 -18 -7 4 -10 1 -7 -7 6 -18 34 -18 30
-1 -1 8 2 11 8 7 5 -3 10 2 10 12 0 14 2 15 9 5 5 -9 20 -12 44 -8 28 4 38 2
46 -12 6 -9 11 -13 11 -8 0 5 -7 18 -17 28 -14 15 -14 18 -1 18 8 0 20 -10 26
-22 l11 -23 0 23 c1 12 -4 22 -10 22 -5 0 -7 5 -3 12 4 6 3 8 -3 5 -6 -4 -11
4 -11 20 l0 26 19 -24 19 -24 -9 26 c-7 21 -5 29 10 42 32 28 56 20 50 -15 0
-5 3 -8 9 -8 5 0 10 -5 10 -11 0 -5 -5 -7 -10 -4 -6 4 -10 3 -9 -2 4 -22 -3
-24 -21 -8 -11 10 -23 16 -26 13 -3 -3 9 -16 25 -28 26 -18 31 -19 31 -6 0 9
5 16 10 16 6 0 10 7 10 15 0 8 4 15 10 15 5 0 7 -8 4 -17 -5 -15 -4 -15 4 -3
13 17 6 30 -14 30 -16 0 -19 26 -4 35 6 4 8 11 5 16 -4 5 -2 9 3 9 11 0 37
-29 28 -31 -3 -1 -10 -2 -15 -3 -20 -2 -21 -14 -1 -19 13 -3 20 0 20 10 0 10
6 13 16 9 10 -4 14 -2 11 6 -2 7 2 21 11 31 18 21 5 22 -22 2 -20 -15 -36 -12
-36 7 0 6 9 8 19 5 12 -3 22 1 25 10 3 8 10 12 15 8 5 -3 13 0 17 7 4 7 4 10
-1 6 -4 -4 -14 -3 -21 3 -16 13 -37 2 -27 -14 4 -7 -4 -5 -17 4 -13 9 -26 22
-28 30 -2 8 0 10 5 4 13 -16 43 -17 43 -1 0 8 -4 18 -10 21 -5 3 -10 1 -10 -6
0 -7 -3 -10 -6 -6 -3 3 -3 11 2 18 5 9 14 4 32 -17 14 -17 22 -22 18 -11 -4
12 -2 16 6 11 7 -5 9 0 6 13 -4 16 -2 19 13 16 11 -3 19 0 19 6 0 6 -7 11 -16
11 -8 0 -12 5 -9 10 9 15 44 -6 41 -25 -3 -22 -26 -43 -26 -24 0 12 -1 12 -9
-1 -13 -19 -2 -34 15 -20 11 10 13 6 9 -19 -2 -17 1 -31 6 -31 15 0 19 52 4
63 -6 5 -3 7 8 3 9 -3 17 -1 17 4 0 6 4 10 8 10 5 0 9 -7 9 -15 0 -8 -7 -15
-16 -15 -11 0 -12 -3 -3 -12 8 -8 15 -8 27 2 13 11 13 15 3 21 -9 6 -6 9 9 9
19 0 22 5 19 40 -2 27 1 40 9 40 7 0 16 7 19 16 5 13 3 14 -6 7 -9 -7 -18 -4
-30 8 -15 16 -15 19 0 31 11 9 14 10 8 1 -4 -7 -4 -18 0 -24 4 -8 9 -8 13 -1
12 20 29 -3 24 -30 -3 -15 -9 -25 -13 -23 -19 11 -16 -11 3 -30 11 -11 17 -15
13 -8 -3 6 -1 15 5 18 5 4 8 13 5 21 -3 8 0 11 10 7 13 -5 13 -7 0 -22 -8 -9
-15 -20 -16 -26 -1 -5 -7 -9 -15 -9 -7 1 -11 -4 -8 -12 3 -8 -1 -14 -11 -14
-9 0 -16 -5 -16 -10 0 -15 23 -7 38 13 9 12 22 15 40 12 15 -3 21 -2 14 1 -6
3 -9 11 -6 16 5 7 2 8 -5 3 -9 -5 -12 -2 -9 11 2 11 11 19 20 19 27 0 34 15 7
16 l-24 0 23 9 c30 13 28 22 -3 10 -15 -6 -26 -6 -30 0 -4 6 -5 10 -3 11 2 0
11 2 21 4 41 8 51 15 38 28 -9 9 -14 9 -20 -2 -6 -9 -8 -5 -8 13 0 25 1 26 17
11 9 -8 22 -15 28 -15 6 0 14 -5 18 -12 4 -7 3 -8 -4 -4 -7 4 -12 0 -13 -11 0
-10 -2 -25 -4 -34 -1 -9 3 -16 11 -16 9 0 10 4 4 12 -12 14 2 35 26 39 10 2
18 9 16 15 -1 6 3 11 10 11 6 0 8 3 5 6 -4 4 -13 2 -21 -5 -11 -9 -20 -6 -45
15 -17 14 -31 33 -30 42 0 14 2 14 6 2 8 -21 34 -40 56 -40 16 0 17 3 8 14 -9
11 -9 16 0 22 8 5 9 3 4 -6 -5 -8 -3 -11 6 -8 8 3 15 12 17 21 2 12 -1 15 -12
11 -23 -9 -19 3 5 17 12 6 19 7 15 1 -3 -5 1 -15 9 -22 12 -10 13 -15 3 -28
-12 -13 -10 -14 9 -2 12 8 20 17 17 21 -5 9 16 6 31 -3 6 -4 17 -3 24 2 8 4
27 4 42 0 17 -5 31 -5 35 1 3 5 2 9 -3 8 -22 -4 -33 3 -34 19 0 14 -2 14 -7 2
-6 -14 -20 -16 -64 -11 -10 1 -9 4 1 10 8 5 11 16 8 25 -4 9 -1 16 5 16 15 0
0 15 -15 15 -7 0 -11 11 -10 23 2 15 -1 21 -9 16 -7 -4 -8 -3 -4 4 11 19 24
14 28 -10 2 -12 10 -23 18 -26 12 -4 13 -2 3 9 -7 7 -13 18 -13 23 1 13 23
-24 26 -41 1 -7 -2 -15 -7 -19 -15 -9 -10 -34 7 -34 10 0 14 5 10 15 -4 11 0
15 12 13 9 -2 20 -10 23 -17 4 -11 7 -9 11 7 4 12 3 20 -2 17 -7 -5 -22 19
-24 38 -1 5 -10 15 -20 23 -16 11 -17 16 -7 27 7 6 12 8 11 2 -5 -22 1 -27 17
-14 15 13 16 12 10 -9 -5 -20 -2 -23 13 -19 11 3 19 2 18 -2 -3 -24 4 -41 14
-35 8 5 9 2 5 -9 -3 -9 -1 -19 5 -23 6 -4 8 -3 5 3 -3 5 0 19 8 31 13 17 20
19 45 12 17 -5 28 -5 25 0 -3 5 0 12 6 15 6 4 13 -2 16 -13 6 -23 29 -36 38
-21 4 5 10 7 15 4 5 -3 11 -1 14 4 3 5 -8 7 -24 6 -21 -2 -31 3 -35 16 -7 21
-20 25 -30 9 -3 -5 -11 -10 -16 -10 -6 0 -7 6 -3 13 5 8 2 8 -9 -2 -9 -7 -17
-10 -17 -7 0 4 -9 2 -21 -4 -18 -10 -20 -9 -17 7 2 10 10 18 18 19 36 2 70 17
70 31 0 8 5 11 10 8 6 -4 7 -11 4 -17 -4 -6 -2 -8 4 -4 6 3 13 -2 15 -11 3
-13 5 -11 7 7 l2 25 8 -25 c7 -23 8 -23 9 -3 1 23 19 25 44 5 11 -9 17 -10 22
-2 4 6 3 10 -2 9 -20 -3 -27 2 -13 11 11 8 8 9 -13 6 -19 -3 -27 -1 -24 7 3 7
10 11 16 9 6 -1 11 5 11 13 0 8 4 15 10 15 5 0 7 -7 3 -15 -3 -10 0 -15 8 -13
8 2 13 -1 12 -7 -1 -5 16 -10 37 -11 22 0 37 3 34 8 -3 4 -1 8 5 8 6 0 18 16
27 35 15 31 24 39 45 37 4 -1 5 7 2 18 -3 12 1 22 11 26 9 3 13 11 9 17 -4 6
0 8 11 4 10 -4 16 -2 15 6 -3 25 1 37 14 35 6 -2 11 4 9 13 -2 17 42 20 68 4
13 -8 13 -6 1 8 -7 9 -17 15 -21 12 -4 -3 -13 1 -19 9 -8 10 -8 16 3 25 17 14
40 77 38 104 -1 14 4 16 20 11 14 -4 18 -2 14 5 -4 6 -16 11 -26 11 -18 0 -22
22 -5 37 4 4 5 3 1 -4 -3 -6 -2 -14 3 -18 6 -3 8 5 5 20 -3 20 0 25 16 25 17
0 19 -3 10 -19 -12 -24 -13 -41 -1 -22 11 17 39 23 47 10 3 -5 12 -9 20 -9 23
0 -2 22 -43 39 -30 12 -37 22 -35 42 1 4 -8 9 -18 12 -22 6 -26 -3 -9 -20 8
-8 7 -17 -5 -34 -13 -19 -16 -20 -16 -6 0 9 5 17 10 17 6 0 10 5 10 11 0 6 -7
8 -17 5 -10 -4 -14 -4 -11 0 4 4 3 14 -2 24 -7 13 -5 16 13 14 12 -1 29 -3 37
-3 8 -1 23 -16 34 -34 11 -18 21 -27 23 -19 3 6 10 9 15 6 7 -5 8 -2 4 5 -5 7
-14 10 -22 7 -19 -7 -19 28 0 43 11 9 14 8 12 -3 0 -8 4 -15 9 -15 6 0 9 7 9
15 -1 8 5 14 13 14 8 0 12 -4 9 -8 -2 -4 -1 -14 3 -21 6 -9 11 -10 15 -2 4 6
3 11 -3 11 -5 0 -8 9 -6 21 3 15 0 19 -10 15 -8 -3 -15 -1 -15 4 0 6 -5 10
-11 10 -5 0 -8 -4 -5 -8 3 -5 -1 -9 -9 -9 -8 0 -12 4 -9 9 3 4 0 8 -5 8 -10 0
-15 -14 -12 -33 1 -5 -3 -6 -9 -2 -32 20 17 61 52 44 11 -6 18 -4 22 6 8 21
35 7 31 -15 -2 -10 2 -21 9 -23 7 -3 13 1 13 9 0 8 -5 14 -10 14 -5 0 -4 6 2
13 6 8 8 16 5 20 -3 3 0 16 7 29 6 12 8 20 4 16 -5 -4 -13 -4 -20 2 -7 6 -21
4 -38 -5 -15 -7 -29 -10 -31 -6 -3 4 11 13 30 20 18 7 34 17 34 23 0 6 11 -1
24 -15 19 -20 25 -23 30 -12 3 9 -1 15 -10 15 -8 0 -13 4 -9 9 8 14 -29 23
-56 13 -13 -5 -31 -7 -39 -4 -13 5 -13 3 0 -14 14 -18 14 -18 -5 -3 -11 9 -27
19 -35 22 -10 4 -8 6 6 6 12 1 34 8 50 15 15 8 32 12 38 8 14 -8 40 -12 32 -5
-3 4 -1 12 5 19 7 8 7 14 -1 19 -6 4 -9 1 -8 -6 2 -6 -2 -13 -8 -16 -7 -2 -11
4 -10 14 1 15 -5 17 -35 15 -37 -3 -59 11 -38 24 8 5 9 3 4 -6 -5 -8 -3 -11 6
-8 8 3 14 12 13 20 -1 7 8 15 19 15 19 2 19 1 1 -19 -19 -20 -19 -21 6 -13 14
4 30 12 35 18 7 7 6 8 -2 3 -9 -5 -11 -2 -6 10 5 14 8 12 20 -10 12 -23 37
-38 31 -19 -5 15 8 16 45 4 29 -10 36 -16 28 -24 -9 -9 -17 -8 -31 1 -29 18
-53 5 -45 -25 3 -15 2 -22 -4 -19 -5 3 -7 -3 -4 -14 3 -11 10 -20 15 -20 5 0
7 4 4 9 -8 12 18 73 27 65 4 -4 2 -13 -4 -21 -14 -16 3 -17 19 -1 7 7 12 8 12
3 0 -5 6 0 14 10 18 25 10 45 -19 45 -29 0 -41 16 -19 24 8 3 13 2 10 -3 -3
-4 7 -8 22 -7 15 1 27 7 27 13 0 7 10 20 23 28 21 16 31 55 13 55 -5 0 -7 -9
-4 -20 3 -12 0 -20 -7 -20 -8 0 -11 9 -8 25 3 14 1 28 -4 31 -4 3 -6 10 -3 15
4 5 1 10 -4 10 -26 3 -30 4 -37 11 -4 4 -14 2 -23 -4 -13 -10 -13 -9 1 7 9 11
17 24 17 30 -1 17 21 17 27 0 5 -13 9 -14 15 -3 12 18 31 -10 25 -36 -3 -11 4
-30 15 -44 10 -14 19 -20 19 -13 0 15 53 14 68 -1 7 -7 12 -8 12 -2 0 13 -39
36 -50 29 -6 -4 -10 -1 -10 4 0 6 5 11 10 11 6 0 10 5 10 11 0 5 -5 7 -10 4
-6 -3 -10 -1 -10 5 0 6 -4 9 -8 6 -5 -3 -9 1 -9 8 0 12 6 14 47 18 11 1 18 7
16 13 -2 5 -9 9 -15 7 -10 -2 -9 22 5 66 4 16 -8 16 -26 0 -12 -11 -12 -10 -1
4 15 21 9 23 -22 7 -20 -9 -20 -9 -5 4 10 8 15 17 11 21 -10 9 29 -5 44 -16 6
-5 12 -5 15 1 2 9 27 17 61 20 4 1 7 5 7 11 0 5 -7 7 -15 4 -8 -4 -15 -1 -15
5 0 6 -4 11 -10 11 -5 0 -10 -7 -10 -16 0 -8 -4 -12 -10 -9 -5 3 -10 1 -10 -5
0 -6 -4 -9 -9 -5 -6 3 0 16 12 28 15 16 26 20 35 14 8 -7 16 -7 23 0 8 8 7 13
-2 18 -8 6 -10 4 -4 -5 6 -9 4 -11 -4 -6 -9 6 -9 12 3 25 9 10 14 20 11 22 -2
3 5 6 16 6 21 2 21 1 3 -19 -11 -12 -13 -18 -5 -13 10 6 12 2 7 -16 -3 -13 -3
-18 0 -11 3 6 12 12 20 12 20 0 17 20 -3 20 -15 1 -14 4 5 20 13 11 20 25 16
31 -3 6 0 15 7 20 10 6 11 9 2 9 -7 0 -13 7 -13 15 0 8 -5 14 -12 13 -6 -2
-14 5 -16 15 -6 28 11 19 36 -19 21 -32 22 -37 8 -65 -8 -16 -10 -29 -5 -29 5
0 7 -11 3 -24 -3 -13 -2 -26 3 -29 5 -3 10 11 11 31 2 20 8 43 15 51 9 12 9
13 0 7 -7 -4 -13 -5 -13 -2 0 3 10 10 21 17 20 10 21 9 16 -10 -3 -11 -1 -21
4 -21 5 0 9 8 9 17 0 9 8 25 17 35 10 11 13 19 8 18 -21 -5 -36 1 -30 10 4 6
11 8 16 5 14 -9 29 4 22 20 -3 8 -15 15 -27 15 -26 0 -69 37 -61 51 10 16 25
10 18 -8 -5 -12 -2 -15 10 -10 9 3 19 2 22 -3 4 -6 1 -10 -6 -10 -7 0 -10 -2
-7 -5 6 -6 58 18 58 28 0 7 -11 10 -43 10 -10 0 -15 2 -12 5 2 3 -1 12 -7 21
-11 13 -9 13 7 -1 17 -14 23 -14 38 -3 11 8 13 15 7 17 -14 4 -20 39 -9 59 5
10 3 21 -4 28 -7 7 -7 12 -2 11 23 -5 33 1 30 17 -1 10 -8 17 -15 15 -6 -1 -8
3 -5 9 5 8 10 8 18 0 14 -14 30 -14 22 -1 -3 6 -3 10 2 11 66 7 63 4 72 58 1
3 8 -4 17 -15 8 -10 13 -14 10 -7 -9 17 16 22 39 7 22 -14 67 -15 59 -2 -3 5
-11 5 -17 1 -7 -4 -6 1 2 10 8 10 16 15 19 12 12 -11 33 35 24 52 -5 10 -7 25
-5 33 3 9 -1 7 -11 -5 -8 -11 -15 -27 -16 -35 0 -12 2 -12 9 -1 6 10 10 10 16
1 10 -17 -1 -24 -43 -25 -20 0 -48 -7 -61 -14 -21 -12 -26 -11 -36 3 -13 18
-8 63 8 73 5 3 7 1 3 -5 -3 -6 -2 -13 4 -17 15 -9 12 -25 -6 -25 -8 0 -12 -4
-9 -10 13 -20 32 -9 42 25 6 19 8 34 4 33 -13 -2 -46 18 -49 30 -1 8 2 11 8 7
5 -3 13 1 16 9 3 9 10 14 14 11 5 -3 11 -1 15 5 3 5 14 10 23 10 10 0 5 -6
-13 -16 -35 -18 -54 -34 -39 -34 5 0 20 8 33 17 14 9 21 11 17 5 -4 -7 3 -14
19 -18 14 -3 25 -10 25 -15 0 -5 -12 -4 -26 1 -14 6 -33 10 -42 10 -15 -1 -15
-2 1 -11 14 -8 17 -18 13 -37 -6 -24 -5 -25 7 -10 8 10 17 15 20 11 4 -3 7 -1
7 4 0 6 -6 14 -12 17 -7 4 -3 4 10 2 15 -3 26 2 33 16 9 16 13 17 27 6 10 -8
13 -9 9 -1 -4 7 0 17 10 23 16 10 16 11 1 6 -19 -6 -35 10 -17 16 6 2 -2 17
-17 33 l-27 29 23 18 c13 10 20 21 16 25 -3 3 -6 3 -6 -2 0 -4 -7 -1 -16 6
-14 11 -18 10 -30 -6 -13 -17 -14 -17 -14 -2 0 10 7 20 15 23 8 4 12 11 9 18
-3 6 3 2 13 -10 17 -20 19 -20 35 -3 15 16 15 18 1 23 -9 4 -13 9 -10 12 3 3
15 -1 27 -9 l22 -15 -21 -7 c-12 -3 -19 -11 -15 -16 3 -5 10 -7 15 -4 19 12 8
-15 -12 -29 -13 -9 -18 -19 -14 -27 5 -8 4 -10 -3 -5 -7 4 -12 2 -12 -3 0 -6
7 -11 15 -11 8 0 15 7 15 15 0 22 10 19 36 -13 13 -15 24 -21 24 -14 0 6 0 15
0 20 0 4 -4 7 -9 7 -19 0 -24 15 -5 16 18 0 18 1 -1 9 -11 5 -15 9 -10 10 6 1
18 3 28 5 9 2 17 -2 17 -9 0 -6 10 -12 23 -13 19 -2 20 -1 4 8 -9 6 -14 16
-11 22 4 7 3 9 -1 4 -9 -8 -55 30 -55 46 0 6 11 0 25 -13 14 -13 25 -18 25
-12 0 7 -6 12 -12 12 -10 0 -9 3 1 9 11 7 11 10 0 15 -8 3 -4 4 9 2 13 -2 20
0 16 6 -3 5 -15 8 -25 5 -11 -3 -19 -1 -19 4 0 5 5 9 11 9 5 0 8 4 5 9 -4 5 7
12 23 16 30 6 64 35 42 35 -6 0 -11 -4 -11 -9 0 -5 -9 -11 -20 -14 -15 -4 -20
0 -20 14 0 10 5 19 10 19 6 0 10 5 10 11 0 7 -7 8 -17 4 -32 -13 -56 -10 -58
7 -2 9 -8 24 -14 35 -10 17 -10 17 -11 -1 0 -14 -3 -16 -13 -7 -8 6 -17 9 -20
6 -4 -3 -4 -2 -1 2 3 5 9 8 12 8 4 0 13 4 21 9 8 5 16 4 21 -5 7 -10 11 -10
25 1 11 9 13 15 4 20 -12 8 1 43 14 41 4 -1 6 2 5 7 -2 4 -5 6 -8 5 -3 -1 -12
-4 -21 -8 -10 -4 -16 0 -16 9 0 8 4 13 8 11 4 -3 14 -2 23 1 12 5 13 10 4 24
-6 10 -18 16 -25 13 -7 -3 -13 0 -13 5 0 10 15 10 45 1 6 -2 25 5 44 15 33 17
33 31 -1 38 -15 2 -13 5 6 14 19 9 23 9 19 -2 -3 -8 2 -11 15 -7 11 2 23 -1
27 -8 5 -7 4 -10 -2 -6 -6 4 -16 0 -23 -8 -10 -12 -8 -14 8 -10 12 2 26 -3 32
-11 7 -7 16 -12 20 -9 5 3 11 1 15 -5 5 -9 -14 -15 -37 -11 -4 0 -5 -5 -2 -13
4 -11 10 -11 30 -2 13 6 22 17 19 24 -3 8 -5 17 -5 22 0 5 -9 12 -20 15 -28 9
-52 57 -38 76 8 11 9 11 4 -3 -3 -12 0 -18 10 -18 9 0 12 -5 8 -12 -6 -10 -5
-10 7 -2 8 7 26 12 40 12 20 0 25 -5 22 -18 -3 -10 1 -17 11 -17 18 0 13 30
-8 56 -9 11 -6 13 14 7 21 -6 22 -5 7 4 -14 9 -22 8 -33 -1 -29 -24 -52 -19
-88 17 -19 19 -30 34 -23 31 6 -2 17 3 24 12 6 9 15 12 20 7 4 -5 2 -11 -4
-13 -7 -3 -13 -9 -13 -14 0 -6 4 -8 9 -5 5 4 14 -6 19 -21 7 -20 11 -22 11 -9
1 12 7 17 19 14 10 -3 24 2 31 9 10 11 15 12 21 3 5 -8 10 -9 14 -2 3 6 0 12
-6 15 -10 3 -10 8 2 23 14 17 13 18 -1 7 -13 -11 -18 -9 -29 12 -12 22 -15 23
-34 10 -26 -19 -41 -19 -24 -1 7 8 18 13 23 13 6 -1 9 4 8 11 -2 6 1 12 6 12
5 0 16 6 23 13 7 8 32 25 54 39 l40 26 -1 -54 c-2 -49 3 -67 9 -32 1 7 5 18 8
23 4 6 3 17 -2 25 -11 17 -1 42 14 33 7 -5 7 -2 -1 8 -10 13 0 22 60 59 40 25
88 53 107 64 19 10 38 21 43 25 4 4 -4 39 -19 77 -65 172 -105 349 -111 489
-2 61 -8 130 -14 155 -6 25 -9 64 -7 87 2 22 0 39 -4 37 -4 -2 -9 0 -13 6 -3
5 1 10 9 10 8 0 20 9 26 20 6 12 7 20 1 20 -5 0 -12 -5 -14 -10 -3 -6 -4 -5
-3 2 1 7 11 15 22 16 10 2 35 21 55 43 36 38 65 56 38 22 -13 -15 -12 -15 9
-4 36 19 38 -10 5 -60 -25 -38 -28 -51 -28 -123 0 -45 4 -115 8 -156 4 -41 12
-123 17 -181 20 -214 67 -414 121 -520 11 -22 17 -45 13 -51 -4 -7 -3 -8 4 -4
7 4 12 3 12 -1 0 -5 23 -33 51 -63 28 -30 83 -99 121 -153 81 -113 204 -226
386 -355 154 -109 202 -149 296 -255 43 -48 120 -122 170 -162 50 -41 111 -92
135 -113 l45 -39 -38 -44 c-20 -24 -54 -77 -73 -117 -31 -62 -37 -86 -41 -160
-10 -174 -9 -195 16 -229 31 -43 69 -53 92 -25 l17 21 11 -25 c15 -31 77 -63
93 -47 6 6 22 42 34 80 23 68 23 68 24 27 2 -76 64 -86 100 -16 15 28 20 32
21 16 0 -24 18 -44 40 -44 26 0 56 39 116 151 31 57 57 105 58 107 2 1 30 -5
62 -13 41 -11 97 -15 184 -14 69 1 143 -3 165 -9 22 -5 72 -13 110 -17 195
-17 222 -25 309 -86 44 -32 122 -86 171 -120 50 -35 146 -106 214 -158 351
-270 515 -370 719 -438 59 -20 139 -47 177 -60 189 -64 287 -62 685 20 231 47
377 61 566 52 101 -5 158 -3 172 4 18 9 20 7 25 -29 6 -48 50 -125 55 -97 4
19 17 22 28 6 3 -6 1 -14 -5 -18 -16 -10 51 -56 112 -77 34 -12 69 -37 120
-88 40 -39 83 -78 97 -87 14 -9 37 -33 50 -53 14 -20 35 -39 47 -42 12 -3 41
-31 65 -61 75 -97 177 -212 213 -239 52 -40 111 -43 179 -10 29 14 72 46 94
70 l41 44 104 -111 c102 -110 351 -386 435 -481 l42 -49 0 516 0 515 -101 106
c-60 63 -108 105 -117 104 -9 -2 -17 3 -18 10 -1 6 -2 16 -3 20 0 5 -30 29
-66 55 -36 26 -65 54 -65 62 0 8 -141 154 -312 323 -607 596 -630 619 -615
579 3 -8 2 -19 -2 -26 -5 -7 -35 18 -85 71 -43 46 -126 133 -185 194 -58 61
-117 126 -130 145 -13 19 25 -16 85 -77 60 -61 125 -121 144 -134 19 -14 -50
64 -154 173 -105 108 -194 197 -199 197 -10 0 3 -18 52 -72 14 -16 21 -28 15
-28 -14 1 -79 89 -77 103 2 7 -34 48 -78 92 -68 67 -78 74 -64 45 14 -27 -4
-14 -80 63 -58 57 -101 93 -105 87 -4 -7 -21 6 -41 30 -19 23 -99 109 -179
191 -80 82 -147 155 -149 162 -2 7 15 -8 38 -33 22 -25 41 -40 41 -33 0 6 -32
40 -70 74 -41 36 -73 73 -76 88 -3 14 -12 46 -20 71 l-14 45 5 -45 c2 -25 8
-64 13 -87 7 -34 6 -45 -6 -55 -13 -11 -14 -9 -8 15 5 20 3 27 -5 22 -8 -5 -9
0 -4 16 5 19 4 21 -4 9 -8 -11 -10 -4 -7 27 2 28 -2 47 -11 54 -11 10 -12 8
-7 -7 17 -46 -15 5 -61 98 -39 79 -60 110 -95 137 l-45 36 50 -56 c28 -31 60
-81 74 -115 13 -32 34 -75 46 -95 13 -20 29 -56 35 -80 20 -79 67 -202 110
-289 38 -77 104 -188 120 -200 26 -21 100 -190 100 -228 0 -9 -11 13 -24 50
-29 82 -69 152 -98 172 -34 24 -32 12 8 -51 47 -74 84 -152 83 -178 0 -14 -2
-16 -6 -5 -20 58 -49 101 -83 125 -46 32 -72 28 -112 -18 -23 -27 -30 -30 -45
-21 -20 13 -21 9 3 128 12 65 19 84 26 72 5 -9 16 -16 25 -16 12 0 14 7 10 34
-4 28 -3 34 9 29 8 -3 14 1 14 10 0 8 -7 17 -15 21 -19 7 -128 235 -144 301
-7 27 -17 55 -22 61 -5 6 -20 42 -35 80 -27 73 -67 149 -85 159 -6 4 -10 1 -8
-6 4 -36 0 -43 -18 -27 -29 24 -43 31 -38 16 3 -7 21 -24 40 -38 18 -14 41
-41 50 -60 9 -19 34 -62 55 -95 45 -70 47 -80 31 -120 -19 -46 -27 -100 -13
-91 8 5 12 -1 12 -15 0 -18 -3 -20 -12 -11 -20 20 -40 15 -29 -6 6 -10 7 -29
4 -41 -9 -34 -23 -5 -24 49 0 34 -2 40 -9 25 -5 -11 -9 -35 -9 -52 -2 -60 -21
-34 -22 30 -1 71 -3 65 -20 -56 -6 -48 -13 -86 -16 -84 -2 3 -13 62 -24 133
-10 70 -28 146 -38 169 -10 22 -21 47 -24 55 -2 9 -15 21 -28 27 -180 88 -178
87 -222 76 -23 -7 -51 -15 -62 -18 -17 -6 -18 -5 -5 5 12 9 6 10 -27 6 -38 -6
-43 -4 -43 13 0 26 43 76 77 90 26 11 45 35 81 106 9 17 31 51 49 76 18 26 33
51 33 57 0 6 -26 40 -58 74 -71 78 -112 132 -112 150 0 8 -14 27 -30 43 -19
18 -26 31 -19 35 6 4 -32 43 -88 91 -54 46 -131 114 -172 151 -41 38 -82 68
-92 68 -9 0 -19 6 -22 13 -5 15 -79 52 -122 61 l-30 7 30 -26 30 -25 -30 11
c-16 6 -38 18 -48 26 -26 24 -135 24 -148 0 -6 -9 -21 -17 -34 -17 -30 0 -91
-70 -105 -119 -19 -70 -12 -186 21 -314 65 -257 208 -466 461 -675 l77 -64
-50 -69 c-48 -65 -99 -114 -162 -154 l-28 -18 -52 50 c-29 27 -76 67 -105 88
-30 21 -68 61 -87 91 -38 59 -119 128 -207 174 -57 31 -228 80 -349 100 -65
11 -67 12 -89 58 -13 25 -40 91 -61 145 -64 168 -135 264 -252 342 -32 21 -57
46 -59 58 -2 11 -15 29 -29 40 -25 18 -28 18 -61 3 -53 -25 -186 -210 -228
-316 -26 -65 -50 -214 -50 -308 0 -71 1 -75 34 -108 27 -27 42 -34 73 -34 21
0 43 3 49 8 5 4 1 -1 -9 -10 -14 -13 -36 -18 -84 -18 -62 0 -68 2 -98 34 -35
37 -55 99 -55 168 0 96 50 310 93 393 49 97 148 223 199 255 l28 17 -88 46
c-118 62 -173 82 -326 121 -127 33 -177 40 -99 16 70 -23 83 -36 83 -86 0 -32
-9 -63 -30 -103 -30 -56 -128 -193 -142 -199 -4 -2 -50 -53 -100 -114 -204
-242 -208 -246 -271 -273 -19 -8 -78 -17 -129 -21 -82 -6 -103 -4 -159 15 -35
12 -75 30 -89 41 -24 18 -24 20 -7 37 9 9 17 12 17 6 0 -6 6 -10 13 -10 6 1
34 -9 60 -22 69 -32 142 -38 208 -16 80 27 122 59 182 139 57 75 113 136 126
136 4 0 13 12 20 26 6 14 27 42 46 62 66 69 108 127 138 190 38 82 46 140 21
168 -28 32 -171 78 -244 78 -8 0 -20 7 -26 15 -7 9 -22 12 -42 9 -20 -3 -33 0
-36 9 -3 7 -15 13 -26 13 -11 0 -20 7 -20 16 0 23 19 54 33 54 36 0 91 25 117
53 69 71 92 159 111 418 11 144 11 146 -14 210 -14 35 -25 76 -25 90 0 15 -11
52 -26 82 -14 31 -26 71 -26 90 0 93 -88 213 -188 257 -61 27 -236 69 -312 75
-83 6 -103 9 -117 18 -6 4 -13 3 -15 -3 -2 -6 -14 -7 -33 -2 -17 5 -48 8 -71
7 -38 -2 -41 0 -40 23 1 14 7 27 14 30 7 2 10 -2 6 -12 -4 -12 -2 -15 9 -10
16 6 14 48 -4 70 -6 7 -4 16 6 24 10 9 15 9 15 1 0 -6 -5 -11 -12 -11 -6 0 -8
-3 -5 -6 4 -4 18 1 32 10 14 9 31 14 38 10 9 -5 9 -4 0 6 -9 10 -15 10 -26 2
-16 -14 -28 -6 -20 14 3 8 -5 23 -18 34 -14 11 -18 19 -11 20 7 0 10 5 6 12
-5 7 -3 8 5 4 7 -5 10 -15 7 -23 -4 -11 0 -13 17 -9 12 3 16 3 9 0 -10 -5 -10
-9 -1 -20 14 -17 29 -18 29 -3 0 5 -5 7 -11 3 -7 -4 -10 -1 -7 7 3 8 10 13 16
12 6 -1 7 7 4 19 -4 18 -6 19 -11 5 -4 -11 -10 -14 -21 -7 -13 8 -12 11 4 23
25 18 62 11 45 -9 -8 -9 -8 -14 -1 -14 16 0 23 16 16 34 -3 9 -14 15 -23 14
-11 -2 -15 3 -13 17 2 16 1 17 -7 5 -5 -8 -8 -17 -5 -21 9 -15 -45 -15 -60 0
-14 14 -17 13 -29 -3 -8 -11 -17 -15 -20 -10 -9 16 9 36 34 39 13 1 27 3 32 4
11 2 9 31 -3 31 -5 0 -14 9 -20 20 -9 16 -8 18 5 14 8 -3 12 -10 9 -15 -3 -5
0 -9 5 -9 17 0 13 15 -7 33 -10 10 -22 14 -27 10 -4 -5 -5 -3 -2 3 4 7 0 14
-8 18 -8 3 -15 11 -15 17 0 8 4 8 15 -1 9 -7 19 -10 22 -6 4 4 1 11 -6 15 -11
7 -9 12 9 21 20 11 22 10 17 -3 -3 -9 1 -18 10 -21 22 -9 28 1 13 19 -8 10 -9
15 -1 15 6 0 11 -4 11 -9 0 -5 9 -7 20 -4 19 5 20 6 3 20 -10 8 -12 12 -5 8 7
-4 12 0 12 10 0 12 -4 14 -16 7 -9 -5 -26 -7 -37 -4 -15 4 -18 2 -12 -8 6 -10
4 -10 -10 -3 -10 6 -27 9 -39 7 -12 -3 -15 -2 -8 2 6 3 9 10 6 16 -4 5 3 5 16
-2 12 -6 24 -9 28 -6 3 3 1 6 -3 6 -5 0 0 6 10 14 10 7 20 21 21 30 3 19 -1
20 -28 5 -12 -6 -18 -7 -14 -1 3 5 -1 15 -9 22 -8 7 -15 20 -14 29 0 11 3 10
9 -5 11 -27 30 -40 30 -21 0 21 23 27 43 12 20 -15 23 -26 4 -19 -8 3 -14 -2
-14 -11 0 -8 4 -16 9 -16 4 -1 12 -2 17 -3 5 0 13 -5 18 -10 5 -5 2 -6 -6 -1
-9 5 -12 3 -9 -5 7 -22 28 -23 28 -1 0 11 5 23 10 26 5 3 10 1 10 -5 0 -6 5
-8 10 -5 14 9 -7 35 -26 35 -17 0 -19 26 -2 36 8 5 9 2 5 -10 -5 -12 -3 -16 5
-14 7 3 13 15 13 29 0 15 5 23 14 21 9 -2 11 3 7 13 -3 9 -2 13 4 10 10 -6 33
29 24 37 -3 3 2 8 11 11 17 7 19 3 6 -21 -6 -12 -4 -24 6 -37 14 -19 15 -18
11 13 -3 17 0 32 5 32 5 0 4 6 -2 14 -6 7 -8 21 -5 31 5 13 3 16 -7 13 -8 -3
-14 -11 -14 -19 0 -8 -8 -13 -18 -13 -13 1 -16 -3 -12 -16 3 -11 -1 -20 -11
-24 -14 -5 -15 -4 -4 9 7 8 8 15 2 15 -5 0 -18 -12 -27 -27 -16 -24 -16 -26 0
-20 11 5 15 3 12 -5 -2 -7 -10 -12 -16 -10 -7 1 -10 -2 -7 -7 3 -5 -1 -12 -9
-15 -13 -4 -14 -2 -5 14 7 14 7 20 0 20 -5 0 -10 5 -10 11 0 5 4 8 8 5 5 -3
18 8 30 24 l21 28 -30 -8 c-24 -7 -30 -6 -26 4 3 8 1 18 -4 23 -5 5 2 9 19 10
15 1 21 -1 15 -4 -25 -9 -13 -18 26 -19 27 0 37 4 34 12 -3 7 -12 10 -21 8
-15 -5 -15 -4 1 9 15 13 16 15 2 21 -17 6 -20 32 -5 41 6 4 9 3 8 -2 -1 -4 3
-18 10 -29 6 -12 8 -24 5 -28 -3 -3 -1 -6 5 -6 7 0 22 10 34 22 13 13 29 22
35 20 7 -2 13 5 12 15 0 10 -3 13 -5 6 -7 -17 -34 -4 -27 13 3 8 8 12 12 9 4
-2 8 3 8 12 0 12 -4 11 -19 -6 -15 -20 -19 -21 -24 -7 -5 13 -10 14 -20 5 -7
-6 -18 -8 -23 -4 -6 3 -16 -3 -23 -15 -19 -30 -29 -24 -13 7 8 15 11 31 8 37
-4 6 -8 6 -11 -2 -2 -7 -8 -12 -14 -12 -6 0 -5 6 2 15 7 9 15 13 17 11 8 -7
32 18 26 27 -3 4 -12 2 -21 -5 -15 -12 -16 -11 -3 5 7 9 20 17 27 17 18 0 18
19 0 26 -8 3 -12 12 -10 19 3 8 12 11 20 8 8 -3 11 -10 7 -16 -3 -6 -1 -7 6
-3 6 4 9 12 6 17 -4 5 -2 9 3 9 18 0 22 -14 7 -30 -13 -14 -12 -16 10 -16 16
0 21 4 15 11 -5 6 -5 17 -1 24 7 11 11 9 20 -5 6 -11 11 -13 11 -7 0 7 6 12
13 10 6 -1 11 4 9 12 -1 7 5 19 15 27 11 8 13 13 6 14 -7 0 -13 4 -13 9 0 6 9
8 20 6 11 -2 20 1 20 7 0 5 -6 8 -14 5 -11 -4 -14 3 -11 29 1 19 -2 37 -7 40
-4 3 -6 10 -3 15 3 5 -1 6 -10 2 -9 -3 -13 -9 -8 -12 5 -3 8 -13 8 -21 -1 -8
3 -21 8 -28 7 -9 6 -11 -6 -7 -8 4 -18 1 -22 -5 -5 -8 -10 -8 -20 0 -10 8 -15
8 -21 -1 -4 -7 -3 -9 4 -5 16 10 22 -7 9 -25 -8 -11 -18 -14 -32 -8 -11 4 -14
8 -6 8 11 1 11 4 1 16 -17 20 -33 9 -20 -15 7 -13 5 -21 -7 -31 -9 -8 -18 -13
-20 -11 -1 1 -9 2 -15 2 -9 0 -8 -4 2 -11 10 -7 11 -9 2 -7 -8 2 -13 7 -12 12
2 9 -19 26 -33 26 -5 0 -5 -10 -2 -22 5 -18 4 -20 -4 -8 -17 24 -13 36 14 48
34 16 43 15 20 -1 -17 -13 -17 -14 3 -19 13 -4 26 0 34 10 10 12 10 14 1 8 -8
-4 -13 -2 -13 8 0 8 -6 17 -12 19 -10 4 -10 6 0 6 6 1 12 9 12 18 0 15 2 14
15 -3 13 -17 15 -17 16 -1 3 31 4 35 11 43 4 4 14 1 22 -5 12 -10 14 -8 9 11
-5 23 -5 23 10 3 8 -11 13 -23 11 -27 -7 -12 -34 -10 -34 2 0 6 -4 10 -8 10
-7 0 -9 -40 -3 -58 1 -2 8 3 16 12 9 8 21 13 28 10 8 -3 12 8 13 31 1 19 -3
32 -7 29 -5 -3 -9 0 -9 5 0 12 -26 15 -33 4 -2 -5 -2 -3 -1 4 5 19 -13 25 -37
12 -15 -8 -19 -8 -15 0 4 6 2 11 -3 11 -6 0 -11 -6 -11 -12 0 -9 -3 -9 -9 1
-6 10 -9 2 -8 -25 1 -74 -16 -105 -58 -103 -16 1 -15 2 5 8 18 5 26 16 32 46
6 28 5 41 -4 47 -10 6 -10 8 0 8 15 0 16 32 0 48 -9 9 -9 12 0 12 7 0 12 -5
12 -11 0 -5 4 -7 10 -4 6 3 10 3 10 -2 0 -4 11 -9 25 -9 19 -2 25 3 25 18 0
12 -4 17 -12 12 -7 -4 -8 -3 -4 5 4 6 13 8 19 4 21 -13 37 -12 38 3 3 28 4 32
12 41 5 4 14 8 19 8 6 0 13 6 16 14 3 9 -1 11 -16 7 -24 -8 -39 21 -20 40 14
14 58 8 58 -7 0 -5 -7 -6 -15 -3 -18 7 -20 -12 -3 -22 6 -4 14 -2 16 4 2 7 7
10 12 7 4 -3 6 5 3 17 -4 19 -3 20 6 8 14 -20 14 -4 -1 19 -16 27 -4 47 34 56
18 4 37 7 41 6 5 -1 5 3 2 9 -4 6 -13 9 -21 6 -8 -3 -14 -1 -14 5 0 6 -5 7
-10 4 -6 -4 -8 -11 -5 -16 4 -5 1 -9 -4 -9 -14 0 -14 17 -1 25 5 3 6 13 3 21
-4 11 -16 15 -39 12 -18 -2 -32 -1 -32 2 0 3 0 14 -1 25 -1 16 -3 17 -10 6 -5
-8 -6 -24 -1 -37 5 -12 6 -25 3 -28 -4 -3 -1 -6 5 -6 6 0 15 8 21 17 10 18 23
13 27 -11 2 -16 -30 -28 -53 -19 -8 3 -12 12 -9 19 3 8 1 14 -5 14 -6 0 -13
-9 -16 -20 -3 -11 -9 -20 -14 -20 -5 0 -5 7 -2 17 5 12 3 14 -7 8 -8 -5 -11
-3 -8 6 3 8 12 14 21 14 21 0 31 11 22 25 -6 9 -10 9 -16 -1 -5 -8 -9 -9 -9
-4 0 12 20 43 20 31 0 -5 7 -2 16 5 19 16 54 22 54 10 0 -5 -7 -12 -16 -15 -9
-4 -14 -9 -10 -13 10 -10 37 -13 31 -3 -3 5 2 16 11 24 8 9 13 16 10 16 -3 0
3 9 14 20 13 13 18 26 13 33 -5 8 -9 5 -11 -10 -2 -13 -10 -23 -18 -23 -11 0
-12 5 -6 18 5 9 7 23 4 31 -3 10 1 12 14 8 17 -6 18 -6 2 6 -9 7 -20 26 -24
41 -5 20 -9 24 -15 14 -5 -7 -9 -8 -9 -3 0 6 7 20 15 32 16 23 11 78 -6 67 -5
-3 -7 -8 -5 -12 13 -21 -52 -66 -75 -51 -12 7 -12 9 1 10 8 1 21 1 27 0 7 -1
10 5 7 13 -3 8 5 21 18 30 17 12 19 16 6 16 -9 0 -19 4 -22 8 -2 4 4 8 15 8
10 0 19 -5 19 -11 0 -5 4 -4 9 4 7 11 12 3 22 -27 7 -23 16 -42 21 -42 5 0 6
4 3 10 -3 5 0 7 8 4 8 -3 18 -1 21 5 4 6 -5 13 -20 17 -18 5 -22 9 -13 15 12
7 6 23 -9 25 -4 0 -14 4 -23 8 -9 4 -22 6 -30 4 -8 -2 -13 3 -12 10 4 17 -7
15 -24 -5 -8 -10 -12 -12 -8 -6 3 7 1 22 -5 33 -14 27 3 50 32 45 29 -6 31
-10 13 -25 -13 -11 -14 -10 -9 5 6 15 5 16 -14 4 -26 -16 -17 -28 25 -33 23
-3 36 2 52 20 11 13 31 24 43 24 18 0 20 2 9 9 -10 7 -24 3 -42 -10 -17 -12
-30 -15 -34 -9 -9 14 2 29 23 29 24 0 50 6 58 14 4 4 2 7 -6 7 -10 0 -10 3 0
15 11 13 10 14 -5 9 -13 -5 -16 -4 -11 4 4 7 13 12 21 12 8 0 17 5 21 12 4 7
3 8 -4 4 -11 -7 -32 23 -32 46 0 9 3 9 10 -2 5 -8 10 -10 10 -3 0 11 39 6 41
-6 0 -3 2 -18 4 -33 3 -23 0 -28 -18 -28 -17 0 -19 -2 -7 -9 8 -6 18 -7 24 -4
5 4 6 1 2 -6 -5 -7 -14 -10 -21 -7 -7 2 -16 -3 -20 -12 -3 -9 -1 -18 4 -20 17
-6 2 -22 -20 -22 -10 0 -19 -4 -19 -8 0 -5 -11 -14 -25 -20 -14 -6 -25 -17
-25 -23 0 -7 8 -5 19 5 10 10 25 16 33 15 26 -3 39 1 33 11 -3 6 -2 10 3 10 6
0 13 -7 16 -16 3 -8 11 -12 17 -8 8 5 8 8 0 13 -20 13 -20 49 -1 66 21 19 25
80 6 104 -8 11 -8 15 2 18 17 6 15 20 -3 20 -8 0 -12 -4 -9 -8 8 -13 -16 -21
-30 -10 -7 6 -16 8 -19 4 -4 -3 -7 1 -7 11 0 9 5 14 10 11 6 -3 10 -1 10 6 0
6 -8 9 -20 6 -11 -3 -20 -1 -20 4 0 5 7 9 16 9 8 0 12 5 9 10 -4 6 -15 8 -25
5 -11 -4 -20 1 -24 11 -5 13 -4 14 7 6 8 -7 17 -9 20 -5 14 13 6 23 -18 23
-17 0 -25 5 -25 18 0 13 2 14 9 3 6 -9 11 -10 15 -2 10 16 26 14 26 -4 0 -8 7
-15 15 -15 8 0 15 4 15 10 0 5 18 14 40 20 22 6 40 15 40 21 0 6 -7 6 -20 -1
-24 -13 -44 -4 -36 16 3 8 0 14 -6 14 -6 0 -17 8 -24 17 -7 10 -16 14 -20 10
-5 -4 -3 -12 4 -16 10 -6 10 -10 -1 -19 -12 -10 -14 -5 -14 29 0 22 3 35 7 29
10 -16 50 -21 50 -5 0 7 7 16 16 19 8 3 13 10 9 15 -3 6 -12 8 -20 4 -8 -3
-15 0 -15 7 0 6 -5 8 -12 4 -7 -4 -8 -3 -4 4 4 7 3 12 -2 12 -17 0 -21 -28 -6
-34 9 -3 12 -10 9 -16 -9 -15 -31 11 -31 37 0 12 3 21 6 21 19 -2 30 3 25 12
-3 5 -13 6 -22 3 -12 -5 -15 -2 -10 10 3 8 1 18 -6 20 -9 3 -8 8 2 18 9 9 11
9 7 2 -4 -8 -1 -13 8 -13 9 0 16 8 17 18 0 10 3 12 6 4 7 -18 23 -4 24 21 0
21 1 21 8 3 7 -19 8 -18 15 5 5 13 8 30 7 36 -1 8 5 10 14 7 8 -3 15 -1 15 4
0 6 16 10 35 9 19 -1 33 -6 31 -12 -2 -5 -9 -9 -15 -8 -6 2 -11 -2 -11 -7 0
-13 11 -12 31 3 9 7 14 18 12 25 -3 8 1 10 14 5 17 -7 17 -6 1 11 -21 21 -23
32 -6 39 10 4 10 6 0 6 -7 1 -15 -6 -19 -15 -5 -13 -7 -13 -14 -2 -6 9 -9 9
-9 1 0 -6 5 -15 11 -19 8 -4 7 -9 -2 -15 -21 -13 -29 -11 -22 7 4 11 -3 23
-18 35 l-24 19 28 -4 c24 -4 27 -3 16 10 -16 20 -4 30 17 13 27 -22 50 -21 25
2 -12 11 -21 25 -21 31 0 7 6 5 13 -4 6 -9 22 -19 35 -23 20 -6 23 -4 20 16
-2 12 3 24 11 27 11 4 12 -2 7 -24 -10 -38 2 -26 14 15 5 20 5 31 -1 31 -6 0
-7 6 -3 13 4 6 -7 -1 -24 -18 -17 -16 -26 -31 -21 -33 5 -2 9 -8 9 -13 0 -18
-28 4 -46 36 -12 23 -21 30 -26 22 -6 -9 -8 -9 -8 0 0 6 4 15 10 18 5 3 8 20
6 36 -2 19 1 33 10 36 8 3 14 9 14 15 0 5 -4 7 -8 4 -5 -3 -20 1 -35 9 -14 7
-27 11 -29 10 -2 -2 -5 7 -6 20 -1 14 2 24 6 23 4 -2 18 5 32 15 20 14 22 19
11 26 -11 7 -9 10 10 13 13 3 3 5 -23 5 -27 1 -48 -3 -48 -8 0 -5 -5 -9 -11
-9 -5 0 -7 5 -4 10 4 6 -7 10 -25 10 -26 0 -31 -3 -26 -17 6 -17 5 -17 -8 -1
-12 17 -135 18 -2235 18 l-2221 0 0 -4511z m4562 4492 c8 11 9 11 6 1 -4 -16
-22 -18 -24 -3 -2 8 -1 7 3 0 4 -8 8 -7 15 2z m-148 -20 c3 -5 -1 -11 -9 -14
-9 -4 -12 -1 -8 9 6 16 10 17 17 5z m86 -41 c0 6 5 10 11 8 13 -4 11 -24 -3
-20 -6 2 -8 -3 -5 -11 3 -7 -1 -14 -9 -14 -7 0 -11 4 -8 9 3 5 0 17 -8 26 -12
15 -11 16 5 3 12 -10 17 -10 17 -1z m-63 -31 c-4 -16 0 -23 14 -26 16 -5 18
-8 7 -14 -17 -12 -31 -11 -23 0 3 5 1 12 -4 15 -5 4 -8 14 -6 24 5 23 4 22 11
22 4 0 4 -9 1 -21z m30 -4 c0 -8 -4 -12 -9 -9 -5 3 -6 10 -3 15 9 13 12 11 12
-6z m113 -20 c5 3 3 -10 -5 -28 -8 -19 -11 -37 -8 -41 4 -3 1 -6 -5 -6 -13 0
-13 40 0 57 10 13 -9 13 -29 0 -8 -5 -13 -3 -13 7 0 15 42 27 48 13 2 -4 8 -5
12 -2z m-225 -15 c3 -5 1 -10 -4 -10 -6 0 -11 5 -11 10 0 6 2 10 4 10 3 0 8
-4 11 -10z m-36 -34 c-3 -3 -11 5 -18 17 -13 21 -12 21 5 5 10 -10 16 -20 13
-22z m166 24 c-3 -5 -12 -10 -18 -10 -7 0 -6 4 3 10 19 12 23 12 15 0z m39
-58 c-12 -11 -18 -12 -27 -3 -9 9 -9 12 0 9 6 -2 11 0 12 5 3 21 0 27 -11 21
-7 -5 -8 -3 -4 5 6 9 13 8 27 -5 16 -15 17 -18 3 -32z m-110 10 c3 -5 -1 -9
-9 -9 -8 0 -12 4 -9 9 3 4 7 8 9 8 2 0 6 -4 9 -8z m60 -41 c13 -11 19 -11 31
-1 8 6 20 10 27 7 8 -4 7 -6 -4 -6 -9 -1 -20 -6 -24 -12 -4 -7 0 -9 14 -5 11
4 23 3 26 -3 3 -5 15 -7 26 -4 11 3 20 1 20 -4 0 -5 -12 -8 -27 -7 -16 1 -28
2 -28 4 0 1 -10 3 -23 4 -12 2 -33 12 -45 24 -13 12 -26 19 -30 16 -3 -3 -3 4
0 17 6 21 7 21 14 3 3 -11 14 -26 23 -33z m-71 -21 c-3 -11 -7 -20 -9 -20 -2
0 -4 9 -4 20 0 11 4 20 9 20 5 0 7 -9 4 -20z m30 -32 c-4 -19 -3 -20 7 -8 9
12 10 10 5 -9 -6 -21 -5 -23 11 -17 16 6 17 5 6 -6 -11 -11 -16 -9 -28 7 -9
11 -20 19 -25 18 -13 -4 -11 3 7 21 21 21 23 20 17 -6z m83 7 c12 -8 24 -12
27 -9 3 3 8 1 12 -5 3 -7 -2 -11 -14 -11 -11 0 -23 -5 -26 -10 -5 -8 -11 -7
-21 1 -17 14 -19 33 -1 23 8 -5 8 -2 -2 9 -17 21 -3 22 25 2z m-166 -25 c0 -5
-2 -10 -4 -10 -3 0 -8 5 -11 10 -3 6 -1 10 4 10 6 0 11 -4 11 -10z m33 -40
c-6 -24 -19 -26 -27 -4 -3 8 -2 12 3 9 5 -3 12 -1 16 5 10 16 14 12 8 -10z
m178 -12 c6 -13 8 -20 4 -15 -5 4 -16 0 -25 -8 -15 -13 -19 -13 -36 1 -16 13
-17 15 -1 10 12 -4 17 0 17 14 0 27 27 25 41 -2z m-226 -7 c3 -5 2 -12 -3 -15
-5 -3 -9 1 -9 9 0 17 3 19 12 6z m55 -30 c0 -11 -7 -26 -15 -34 -8 -8 -12 -16
-10 -19 2 -2 -6 -5 -18 -5 -19 -2 -20 -1 -4 8 9 6 17 17 17 25 0 9 5 12 12 8
8 -5 9 0 6 14 -4 12 -2 22 3 22 5 0 9 -9 9 -19z m24 3 c3 -8 2 -12 -4 -9 -6 3
-10 10 -10 16 0 14 7 11 14 -7z m90 -35 c-3 -5 -10 -7 -15 -3 -5 3 -7 10 -3
15 3 5 2 16 -3 22 -4 7 0 4 9 -6 10 -11 15 -23 12 -28z m-166 13 c-8 -9 -14
-9 -24 -1 -18 15 -18 14 10 14 18 0 22 -3 14 -13z m122 -11 c13 -25 13 -34 0
-26 -16 10 -32 45 -21 45 6 0 15 -9 21 -19z m-50 -1 c0 -5 -5 -10 -11 -10 -5
0 -7 5 -4 10 3 6 8 10 11 10 2 0 4 -4 4 -10z m-180 -70 c0 -5 -2 -10 -4 -10
-3 0 -8 5 -11 10 -3 6 -1 10 4 10 6 0 11 -4 11 -10z m80 6 c0 -2 -8 -10 -17
-17 -16 -13 -17 -12 -4 4 13 16 21 21 21 13z m55 -6 c3 -5 2 -10 -4 -10 -5 0
-13 5 -16 10 -3 6 -2 10 4 10 5 0 13 -4 16 -10z m-123 -32 c-8 -8 -9 -15 -1
-25 7 -8 8 -13 1 -13 -15 0 -22 26 -9 39 6 6 13 11 16 11 3 0 0 -5 -7 -12z
m68 -12 c0 -9 -32 -36 -42 -36 -6 0 -1 9 12 20 23 20 30 24 30 16z m33 -39 c3
-7 -3 -13 -14 -13 -13 0 -15 3 -7 13 6 7 12 13 13 13 2 0 5 -6 8 -13z m62 -15
c-3 -3 -11 0 -18 7 -9 10 -8 11 6 5 10 -3 15 -9 12 -12z m-10 -21 c-3 -5 -1
-12 5 -16 12 -8 13 -42 1 -49 -5 -4 -8 2 -6 11 1 10 -1 25 -6 34 -5 9 -5 19
-2 23 10 9 15 7 8 -3z m-72 -25 c3 -8 -4 -22 -16 -33 -16 -14 -19 -14 -9 -1 9
11 10 18 2 23 -11 7 -4 25 10 25 4 0 10 -6 13 -14z m48 -39 c-10 -9 -11 -8 -5
6 3 10 9 15 12 12 3 -3 0 -11 -7 -18z m102 -16 c3 -15 -1 -18 -19 -17 -27 1
-29 7 -12 24 17 17 25 15 31 -7z m-162 -14 c-10 -9 -11 -8 -5 6 3 10 9 15 12
12 3 -3 0 -11 -7 -18z m109 9 c0 -11 -19 -15 -25 -6 -3 5 1 10 9 10 9 0 16 -2
16 -4z m-50 -16 c0 -5 -5 -10 -11 -10 -5 0 -7 -5 -3 -11 4 -8 0 -8 -15 0 -22
12 -26 6 -21 -29 2 -18 -3 -13 -20 19 -6 13 -7 21 -2 17 6 -3 13 -2 17 4 4 6
10 8 15 5 5 -3 11 -1 15 5 8 13 25 13 25 0z m3 -47 c-7 -2 -19 -2 -25 0 -7 3
-2 5 12 5 14 0 19 -2 13 -5z m3 -39 c2 -12 -1 -13 -12 -3 -13 10 -18 6 -16
-13 1 -3 -6 -9 -16 -13 -9 -3 -13 -3 -9 1 4 4 2 13 -5 21 -8 10 -8 12 4 8 8
-3 21 1 28 10 14 17 23 13 26 -11z m41 -45 c-21 -12 -23 -31 -2 -23 10 4 15 0
15 -12 0 -16 -2 -16 -10 -4 -7 12 -10 11 -15 -5 -4 -11 -11 -31 -16 -44 -7
-18 -7 -26 3 -32 22 -15 -6 -9 -32 6 l-25 14 24 1 c16 0 21 4 17 15 -3 8 -1
15 4 15 6 0 10 7 10 15 0 8 -4 15 -10 15 -5 0 -10 5 -10 11 0 5 5 7 10 4 9 -6
12 1 9 22 -1 9 34 22 41 16 3 -2 -3 -9 -13 -14z m-116 -6 c13 -16 12 -17 -3
-4 -10 7 -18 15 -18 17 0 8 8 3 21 -13z m52 5 c-4 -7 -8 -16 -8 -20 0 -14 -15
-21 -15 -7 0 8 5 20 12 27 16 16 21 15 11 0z m-18 -58 c3 -5 -3 -10 -15 -10
-12 0 -18 5 -15 10 3 6 10 10 15 10 5 0 12 -4 15 -10z m-11 -42 c-3 -5 -12 -4
-20 3 -19 16 -18 18 6 12 11 -3 17 -9 14 -15z m93 0 c-3 -8 -6 -5 -6 6 -1 11
2 17 5 13 3 -3 4 -12 1 -19z m-77 -28 c0 -5 -5 -10 -11 -10 -5 0 -7 5 -4 10 3
6 8 10 11 10 2 0 4 -4 4 -10z m-160 -70 c0 -5 -2 -10 -4 -10 -3 0 -8 5 -11 10
-3 6 -1 10 4 10 6 0 11 -4 11 -10z m104 -8 c3 -5 -1 -9 -9 -9 -8 0 -12 4 -9 9
3 4 7 8 9 8 2 0 6 -4 9 -8z m-67 -17 c-9 -9 -14 -10 -19 -1 -5 7 -8 7 -8 -3 0
-8 -3 -12 -6 -8 -10 10 3 23 25 24 17 1 18 -1 8 -12z m93 -60 c0 -5 -5 -3 -10
5 -5 8 -10 20 -10 25 0 6 5 3 10 -5 5 -8 10 -19 10 -25z m-117 3 c-6 -7 -9
-21 -8 -31 2 -9 -1 -15 -6 -11 -13 7 -11 28 3 42 16 16 23 15 11 0z m91 4 c2
-4 -4 -8 -14 -8 -10 0 -16 4 -14 8 3 4 9 8 14 8 5 0 11 -4 14 -8z m-38 -65 c1
-9 -2 -17 -7 -17 -5 0 -9 2 -9 4 0 2 -3 12 -7 22 -4 11 -2 15 7 12 7 -2 14
-12 16 -21z m-66 -1 c0 -2 -7 -7 -16 -10 -8 -3 -12 -2 -9 4 6 10 25 14 25 6z
m125 -6 c3 -5 2 -10 -4 -10 -5 0 -17 -3 -27 -7 -16 -6 -17 -5 -4 10 17 19 26
21 35 7z m45 -21 c0 -10 7 -19 15 -19 22 0 20 -33 -3 -36 -6 -1 -10 1 -7 6 7
11 -24 42 -36 35 -5 -4 -6 1 -3 9 3 9 10 16 16 16 5 0 6 5 2 12 -4 7 -3 8 4 4
7 -4 12 -16 12 -27z m-160 6 c-10 -12 -9 -15 5 -15 10 0 16 -3 12 -6 -3 -3
-15 -3 -27 1 -20 6 -21 7 -3 21 24 18 28 17 13 -1z m71 -25 c9 13 10 13 6 0
-2 -8 -13 -15 -24 -16 -15 -1 -20 3 -16 13 5 12 7 12 14 1 7 -11 11 -10 20 2z
m73 -27 c8 -24 7 -33 -1 -34 -5 0 -14 -6 -21 -11 -11 -9 -11 -13 0 -19 10 -7
10 -11 -1 -21 -10 -10 -12 -10 -7 0 4 6 3 12 -3 12 -14 0 -7 63 9 68 9 3 11
-1 6 -14 -6 -15 -5 -16 5 -7 10 10 9 15 -1 28 -7 9 -8 15 -2 15 6 0 13 -8 16
-17z m-59 -32 c-2 -9 -4 -19 -4 -23 -1 -5 -6 -8 -12 -8 -8 0 -8 4 0 14 10 11
6 16 -16 24 l-28 10 31 -1 c24 0 31 -4 29 -16z m106 -10 c-6 -10 -7 -21 -4
-25 3 -3 -1 -6 -10 -6 -21 0 -21 5 0 30 22 25 27 26 14 1z m-165 -6 c-36 -19
-45 -19 -20 0 10 8 26 14 34 15 8 0 2 -7 -14 -15z m23 -8 c-2 -1 -13 -9 -24
-17 -19 -14 -19 -14 -6 3 7 9 18 17 24 17 6 0 8 -1 6 -3z m-2704 -27 c4 -6 -7
-10 -27 -10 -25 0 -29 3 -18 10 19 13 37 13 45 0z m2700 -10 c-10 -11 -21 -17
-25 -15 -5 3 -11 0 -13 -5 -4 -7 -5 -6 -3 1 1 6 5 10 9 9 4 0 15 6 23 15 23
22 30 18 9 -5z m-64 -13 c-10 -9 -11 -8 -5 6 3 10 9 15 12 12 3 -3 0 -11 -7
-18z m47 -42 c-6 -14 -15 -25 -19 -25 -4 0 -2 11 4 25 7 14 15 25 19 25 4 0 2
-11 -4 -25z m-84 -25 c-6 -6 -10 -3 -10 10 0 13 4 16 10 10 7 -7 7 -13 0 -20z
m-2426 -9 c10 -6 9 -10 -7 -14 -32 -8 -36 -35 -13 -88 27 -65 17 -63 -13 4
-32 68 -33 107 -2 107 12 0 28 -4 35 -9z m425 -26 c101 -40 167 -87 270 -195
119 -124 183 -208 196 -257 20 -70 -7 -67 -43 5 -13 26 -63 98 -111 161 -104
134 -168 186 -316 252 -149 66 -146 93 4 34z m2027 2 c0 -7 -4 -6 -10 3 -8 12
-10 12 -10 1 0 -8 -3 -12 -6 -8 -9 9 6 28 17 22 5 -4 9 -12 9 -18z m40 19 c0
-2 -7 -7 -16 -10 -8 -3 -12 -2 -9 4 6 10 25 14 25 6z m105 -25 c-3 -5 0 -13 6
-17 12 -7 -6 -24 -26 -24 -5 0 -4 4 4 9 10 6 10 10 1 16 -9 6 -9 10 1 16 18
11 22 11 14 0z m55 -6 c-7 -8 -9 -15 -5 -15 4 0 1 -8 -6 -17 -10 -11 -10 -14
-1 -9 6 4 12 2 12 -3 0 -6 -7 -11 -15 -11 -20 0 -19 34 1 54 20 20 30 21 14 1z
m-101 -4 c9 -6 10 -11 2 -15 -6 -4 -11 -2 -11 4 0 6 -4 8 -10 5 -5 -3 -10 -1
-10 4 0 13 10 14 29 2z m-2998 -128 c7 -36 26 -74 63 -125 29 -40 74 -103 100
-140 26 -38 53 -68 61 -68 17 0 67 -59 60 -70 -7 -11 73 -77 220 -184 118 -85
120 -90 30 -101 -27 -3 -50 -7 -52 -9 -5 -5 44 -89 65 -112 23 -24 74 -104 68
-104 -3 0 2 -16 10 -36 l15 -36 -98 52 c-284 148 -563 420 -644 627 -23 60
-32 171 -16 225 4 15 25 48 47 73 22 25 43 58 47 73 6 22 8 23 10 7 2 -11 8
-43 14 -72z m3005 59 c-17 -16 -18 -16 -5 5 7 12 15 20 18 17 3 -2 -3 -12 -13
-22z m-159 -17 c0 -8 -4 -12 -9 -9 -5 3 -6 10 -3 15 9 13 12 11 12 -6z m170
-38 c-3 -8 -18 -14 -34 -14 -15 0 -22 2 -15 4 6 3 10 9 6 14 -8 13 10 11 24
-3 9 -9 12 -8 12 7 0 10 3 16 6 12 4 -3 4 -13 1 -20z m-2548 -68 c30 -39 103
-116 163 -172 138 -129 143 -155 10 -54 -71 54 -252 254 -252 278 0 36 25 19
79 -52z m2394 26 c4 -8 3 -16 -1 -19 -4 -3 -9 4 -9 15 -2 23 3 25 10 4z m81
-14 c4 -5 -3 -7 -14 -4 -23 6 -26 13 -6 13 8 0 17 -4 20 -9z m-54 -51 c0 -14
-28 -1 -34 16 -4 12 -2 12 14 4 11 -6 20 -15 20 -20z m-40 -20 c0 -5 -4 -10
-9 -10 -6 0 -13 5 -16 10 -3 6 1 10 9 10 9 0 16 -4 16 -10z m40 -4 c0 -2 -7
-7 -16 -10 -8 -3 -12 -2 -9 4 6 10 25 14 25 6z m-2040 -56 c0 -5 -6 -10 -14
-10 -8 0 -18 5 -21 10 -3 6 3 10 14 10 12 0 21 -4 21 -10z m1950 -31 c0 -6 -4
-7 -10 -4 -5 3 -10 11 -10 16 0 6 5 7 10 4 6 -3 10 -11 10 -16z m-1972 -8 c59
-65 73 -78 96 -94 28 -19 81 -95 73 -104 -9 -9 -152 64 -189 96 -40 35 -57 83
-38 106 17 20 37 19 58 -4z m2265 -10 c-14 -45 -26 -61 -40 -50 -7 6 -13 8
-13 4 0 -4 -6 -2 -14 4 -10 8 -16 9 -21 1 -3 -5 -11 -10 -16 -10 -6 0 -3 7 6
16 12 12 19 13 29 5 10 -9 16 -9 21 -1 3 6 11 7 17 4 7 -4 8 -2 4 5 -11 17 -1
38 17 38 9 0 13 -7 10 -16z m-218 -69 c-3 -3 -5 0 -5 7 0 7 -4 9 -10 6 -6 -4
-10 6 -10 22 l0 28 15 -29 c9 -16 13 -31 10 -34z m-1959 20 c-4 -3 -14 2 -24
12 -16 18 -16 18 6 6 13 -6 21 -14 18 -18z m1898 -8 c3 -8 2 -12 -4 -9 -6 3
-10 10 -10 16 0 14 7 11 14 -7z m126 -28 c0 -8 -8 -17 -17 -19 -16 -4 -16 -5
-1 -6 9 0 20 4 23 9 3 6 14 10 23 10 12 -1 10 -5 -8 -15 -33 -19 -60 -19 -60
1 0 8 -4 13 -9 9 -5 -3 -12 -1 -16 4 -3 6 5 8 20 5 14 -2 25 0 25 6 0 5 5 10
10 10 6 0 10 -6 10 -14z m-135 -26 c-3 -5 -12 -10 -18 -10 -7 0 -6 4 3 10 19
12 23 12 15 0z m105 -59 c-9 -18 -8 -21 7 -21 14 0 15 -2 4 -9 -7 -5 -10 -14
-7 -20 4 -6 1 -11 -7 -11 -10 0 -14 7 -10 23 4 21 4 21 -8 3 -9 -15 -9 -23 0
-39 7 -10 10 -22 7 -25 -3 -3 -6 1 -6 9 0 11 -2 11 -10 -1 -10 -16 -11 -13
-14 32 -1 15 2 24 8 21 5 -4 7 1 3 11 -4 10 -3 15 3 11 5 -3 15 5 22 19 6 15
13 24 15 22 3 -2 0 -14 -7 -25z m-1464 -18 c-4 -16 -18 -38 -32 -49 -25 -21
-26 -22 -9 -54 9 -17 15 -33 13 -35 -2 -2 -21 13 -41 34 -35 36 -36 40 -22 55
9 9 24 16 32 16 21 0 53 29 53 47 0 7 3 13 6 13 3 0 3 -12 0 -27z m1387 -8
c-6 -17 -23 -20 -23 -5 0 6 5 10 11 10 5 0 7 5 3 12 -4 7 -3 8 4 4 6 -4 9 -13
5 -21z m200 -45 c-6 -23 -18 -26 -30 -7 -11 17 -10 31 1 39 16 11 35 -11 29
-32z m-1743 20 c0 -13 -11 -13 -30 0 -12 8 -11 10 8 10 12 0 22 -4 22 -10z
m-238 -20 c82 -23 109 -40 62 -40 -39 0 -124 25 -149 44 -18 14 -18 15 -2 16
9 0 50 -9 89 -20z m1746 -15 c-6 -14 -15 -25 -20 -25 -5 0 -1 11 8 25 9 14 18
25 20 25 2 0 -2 -11 -8 -25z m134 8 c-6 -2 -10 -9 -6 -14 3 -5 0 -9 -5 -9 -12
0 -14 13 -4 23 3 4 11 7 17 6 6 0 5 -3 -2 -6z m-1389 -106 c-3 -26 -9 -44 -14
-41 -11 6 -12 108 -2 118 13 12 21 -29 16 -77z m1211 61 c-3 -4 -9 -8 -15 -8
-5 0 -9 4 -9 8 0 5 7 9 15 9 8 0 12 -4 9 -9z m116 8 c0 -2 -8 -10 -17 -17 -16
-13 -17 -12 -4 4 13 16 21 21 21 13z m-2233 -31 c20 -17 23 -24 12 -25 -8 0
-26 11 -39 25 -30 32 -10 33 27 0z m2214 -48 c-1 -12 -15 -9 -19 4 -3 6 1 10
8 8 6 -3 11 -8 11 -12z m29 -12 c-6 -8 -9 -19 -6 -24 4 -5 3 -12 -2 -15 -12
-7 -11 26 1 42 5 6 12 12 14 12 3 0 0 -7 -7 -15z m-60 1 c0 -2 -7 -9 -15 -16
-13 -11 -14 -10 -9 4 5 14 24 23 24 12z m15 -44 c-3 -3 -11 0 -18 7 -9 10 -8
11 6 5 10 -3 15 -9 12 -12z m-1295 -38 c0 -8 -4 -14 -10 -14 -5 0 -10 9 -10
21 0 11 5 17 10 14 6 -3 10 -13 10 -21z m1201 -21 c13 -16 12 -17 -3 -4 -10 7
-18 15 -18 17 0 8 8 3 21 -13z m179 -3 c0 -5 -2 -10 -4 -10 -3 0 -8 5 -11 10
-3 6 -1 10 4 10 6 0 11 -4 11 -10z m-210 -35 c0 -8 -2 -15 -4 -15 -2 0 -6 7
-10 15 -3 8 -1 15 4 15 6 0 10 -7 10 -15z m53 -10 c-3 -9 -8 -14 -10 -11 -3 3
-2 9 2 15 9 16 15 13 8 -4z m-1251 -10 c0 -5 -5 -11 -11 -13 -6 -2 -11 4 -11
13 0 9 5 15 11 13 6 -2 11 -8 11 -13z m1278 -40 c0 -2 -7 -5 -15 -9 -9 -3 -15
0 -15 9 0 9 6 12 15 9 8 -4 15 -7 15 -9z m-35 -25 c3 -6 -1 -7 -9 -4 -18 7
-21 14 -7 14 6 0 13 -4 16 -10z m19 -36 c3 -8 2 -12 -4 -9 -6 3 -10 10 -10 16
0 14 7 11 14 -7z m-61 -9 c-3 -9 -8 -14 -10 -11 -3 3 -2 9 2 15 9 16 15 13 8
-4z m83 -24 c-3 -5 1 -11 9 -15 20 -7 19 -22 -1 -30 -12 -4 -15 -2 -11 9 4 8
-3 21 -16 30 l-21 15 22 0 c13 0 21 -4 18 -9z m-36 -42 c0 -5 5 -7 12 -3 7 4
8 3 4 -4 -4 -6 -13 -9 -21 -5 -17 6 -20 23 -5 23 6 0 10 -5 10 -11z m-87 -12
c3 -7 -3 -13 -14 -14 -15 -1 -16 1 -6 12 15 18 14 18 20 2z m40 -40 c-7 -11
-23 2 -23 19 0 12 2 12 14 2 8 -7 12 -16 9 -21z m49 16 c-6 -2 -10 -9 -6 -14
7 -12 -20 -39 -38 -38 -10 0 -10 2 0 6 6 2 10 9 6 14 -3 5 0 8 7 7 7 -2 14 3
15 10 3 21 4 22 17 21 9 0 9 -2 -1 -6z m6 -68 c-3 -3 -9 2 -12 12 -6 14 -5 15
5 6 7 -7 10 -15 7 -18z m32 5 c0 -11 -2 -20 -4 -20 -2 0 -6 9 -9 20 -3 11 -1
20 4 20 5 0 9 -9 9 -20z m34 -36 c4 -9 4 -19 2 -21 -8 -8 -26 8 -26 23 0 19
16 18 24 -2z m-132 -1 c-6 -3 -10 -8 -8 -12 3 -4 -1 -8 -9 -8 -8 0 -12 4 -9 8
2 4 -2 9 -8 12 -7 2 1 4 17 4 17 0 24 -2 17 -4z m32 -10 c-16 -17 -16 -18 2
-23 13 -3 20 -15 22 -37 2 -31 1 -32 -23 -23 -19 7 -23 6 -18 -5 7 -21 1 -19
-21 6 -18 21 -18 22 8 17 35 -7 60 20 27 29 -14 4 -20 11 -17 20 3 8 6 19 6
24 0 5 7 9 16 9 13 0 13 -2 -2 -17z m52 1 c-1 -8 -6 -17 -11 -21 -4 -4 -5 -2
-1 5 4 6 2 12 -3 12 -6 0 -11 4 -11 8 0 5 6 9 14 9 7 0 13 -6 12 -13z m30 -26
c5 -7 3 -8 -6 -3 -10 6 -12 3 -8 -11 4 -14 0 -20 -13 -21 -11 -1 -19 5 -19 13
0 8 4 13 9 10 5 -3 11 1 15 9 7 18 12 19 22 3z m-166 -18 c18 -12 2 -12 -25 0
-13 6 -15 9 -5 9 8 0 22 -4 30 -9z m177 -36 c-3 -3 -12 -4 -19 -1 -8 3 -5 6 6
6 11 1 17 -2 13 -5z m-33 -22 c-7 -4 -10 -19 -9 -35 2 -15 -1 -25 -5 -22 -5 3
-7 12 -3 20 3 11 1 13 -10 9 -8 -3 -18 -1 -22 5 -3 7 0 8 9 5 11 -4 16 0 16
10 0 9 8 16 18 16 11 0 13 -3 6 -8z m-134 -42 c0 -5 -5 -10 -11 -10 -5 0 -7 5
-4 10 3 6 8 10 11 10 2 0 4 -4 4 -10z m97 -26 c-3 -3 -12 -4 -19 -1 -8 3 -5 6
6 6 11 1 17 -2 13 -5z m-277 -303 c0 -5 -7 -12 -16 -15 -14 -5 -15 -4 -4 9 14
17 20 19 20 6z m40 -115 c0 -3 -4 -8 -10 -11 -5 -3 -10 -1 -10 4 0 6 5 11 10
11 6 0 10 -2 10 -4z m100 -165 c0 -29 -15 -33 -55 -17 -45 19 -37 36 16 36 32
0 39 -3 39 -19z m20 -121 c0 -5 -4 -10 -10 -10 -5 0 -10 5 -10 10 0 6 5 10 10
10 6 0 10 -4 10 -10z m-130 -40 c0 -5 -2 -10 -4 -10 -3 0 -8 5 -11 10 -3 6 -1
10 4 10 6 0 11 -4 11 -10z m77 -8 c10 -6 9 -13 -3 -30 -16 -23 -77 -31 -89
-12 -3 6 3 10 14 10 11 0 25 9 31 20 11 21 27 25 47 12z m233 -2 c0 -5 -4 -10
-10 -10 -5 0 -10 5 -10 10 0 6 5 10 10 10 6 0 10 -4 10 -10z m168 -17 c17 -7
32 -20 32 -29 0 -14 -14 -15 -107 -11 -65 3 -109 9 -111 16 -2 7 7 9 26 5 25
-5 33 -2 47 20 14 21 22 24 48 19 18 -4 47 -12 65 -20z m-158 -75 c0 -5 5 -6
10 -3 6 3 10 2 10 -4 0 -5 7 -17 16 -26 35 -34 -20 -31 -65 4 -29 22 -23 52 8
44 12 -3 21 -10 21 -15z m-330 -124 c0 -8 -4 -14 -10 -14 -5 0 -10 9 -10 21 0
11 5 17 10 14 6 -3 10 -13 10 -21z m-83 -40 c-3 -3 -12 -4 -19 -1 -8 3 -5 6 6
6 11 1 17 -2 13 -5z m10 -99 c0 -8 -4 -12 -9 -9 -5 3 -6 10 -3 15 9 13 12 11
12 -6z m30 -60 c0 -8 -4 -12 -9 -9 -5 3 -6 10 -3 15 9 13 12 11 12 -6z m-147
-35 c0 -5 -7 -7 -15 -4 -8 4 -15 8 -15 10 0 2 7 4 15 4 8 0 15 -4 15 -10z
m408 -21 c68 -17 74 -29 17 -30 -28 0 -84 -3 -127 -5 -78 -5 -96 2 -84 31 7
19 124 21 194 4z m-310 -15 c-1 -5 -9 -9 -16 -10 -10 -2 -11 1 -1 12 12 14 24
13 17 -2z m52 -34 c6 -11 8 -20 6 -20 -3 0 -10 9 -16 20 -6 11 -8 20 -6 20 3
0 10 -9 16 -20z m-90 -56 c0 -8 -5 -12 -10 -9 -6 4 -8 11 -5 16 9 14 15 11 15
-7z m40 12 c0 -3 -4 -8 -10 -11 -5 -3 -10 -1 -10 4 0 6 5 11 10 11 6 0 10 -2
10 -4z m217 -12 c-3 -3 -12 -4 -19 -1 -8 3 -5 6 6 6 11 1 17 -2 13 -5z m-153
-36 c7 -5 6 -8 -3 -8 -8 0 -20 -8 -27 -17 -11 -15 -11 -12 -1 21 6 21 13 32
16 25 2 -8 9 -17 15 -21z m-84 6 c0 -8 -5 -12 -10 -9 -6 4 -8 11 -5 16 9 14
15 11 15 -7z m-40 -28 c0 -3 -4 -8 -10 -11 -5 -3 -10 -1 -10 4 0 6 5 11 10 11
6 0 10 -2 10 -4z m31 -58 c-10 -11 -11 -10 -6 5 5 12 2 17 -10 17 -9 0 -13 5
-9 11 4 7 11 6 22 -5 13 -13 14 -18 3 -28z m103 34 c3 -5 -1 -9 -9 -9 -8 0
-12 4 -9 9 3 4 7 8 9 8 2 0 6 -4 9 -8z m147 -16 c-9 -11 -7 -15 9 -19 11 -3
20 -10 20 -16 0 -14 -47 -15 -55 -1 -7 11 16 50 29 50 4 0 3 -6 -3 -14z m-191
-21 c0 -2 -6 -8 -13 -14 -10 -8 -14 -7 -14 2 0 8 6 14 14 14 7 0 13 -1 13 -2z
m1230 -25 c0 -5 -2 -10 -4 -10 -3 0 -8 5 -11 10 -3 6 -1 10 4 10 6 0 11 -4 11
-10z m-50 -21 c0 -5 -9 -9 -20 -9 -11 0 -20 6 -20 14 0 9 7 12 20 9 11 -3 20
-9 20 -14z m115 -13 c19 -8 35 -20 35 -27 0 -7 -7 -8 -17 -4 -10 4 -30 12 -45
17 -16 5 -28 14 -28 19 0 13 15 11 55 -5z m-1440 -26 c3 -6 -1 -7 -9 -4 -18 7
-21 14 -7 14 6 0 13 -4 16 -10z m1505 -10 c0 -5 -4 -10 -10 -10 -5 0 -10 5
-10 10 0 6 5 10 10 10 6 0 10 -4 10 -10z m-1070 -92 c19 -13 30 -31 30 -45 0
-51 24 -121 62 -176 22 -33 55 -95 74 -140 18 -44 46 -93 61 -109 22 -23 24
-28 9 -28 -10 0 -29 9 -43 20 -14 11 -32 20 -39 20 -8 0 -26 24 -40 52 -15 29
-49 86 -77 126 -57 83 -87 170 -87 248 0 60 7 64 50 32z m925 -37 c-3 -6 -11
-8 -17 -5 -6 4 -5 9 3 15 16 10 23 4 14 -10z m-15 -20 c0 -4 -6 -15 -13 -25
-12 -17 -14 -15 -15 19 -1 31 1 35 13 25 8 -7 15 -16 15 -19z m-46 -46 c3 -8
1 -15 -4 -15 -6 0 -10 -8 -11 -17 0 -15 -2 -15 -8 2 -9 21 -4 45 9 45 4 0 10
-7 14 -15z m783 -54 c4 1 15 1 23 0 13 -1 13 -2 0 -11 -12 -8 -11 -10 8 -10
12 0 31 -9 42 -20 22 -22 26 -40 10 -40 -5 0 -10 5 -10 11 0 6 -8 8 -18 5 -26
-8 -101 49 -102 77 0 4 9 3 20 -3 10 -6 23 -10 27 -9z m1884 -78 c13 -16 12
-17 -3 -4 -10 7 -18 15 -18 17 0 8 8 3 21 -13z m-4026 -23 c3 -5 2 -10 -4 -10
-5 0 -13 5 -16 10 -3 6 -2 10 4 10 5 0 13 -4 16 -10z m-48 -17 c2 -6 -7 -9
-19 -8 -33 4 -34 4 -18 15 17 11 32 8 37 -7z m-47 -53 c-33 -29 -35 -30 -45
-10 -6 11 -15 17 -20 13 -4 -4 -5 -2 -1 5 5 9 18 11 37 7 18 -4 29 -3 29 4 0
6 8 11 18 11 12 -1 8 -8 -18 -30z m-49 -36 c11 -13 11 -15 -2 -14 -29 5 -39
-1 -39 -20 0 -11 -5 -20 -10 -20 -6 0 -15 -10 -21 -22 -5 -13 -21 -28 -35 -35
-23 -10 -24 -10 -22 16 1 18 8 27 21 28 29 3 48 23 42 47 -5 15 -4 17 3 7 8
-11 12 -10 23 8 16 25 22 26 40 5z m1304 6 c-3 -5 -11 -10 -16 -10 -6 0 -7 5
-4 10 3 6 11 10 16 10 6 0 7 -4 4 -10z m-80 -50 c3 -6 -1 -7 -9 -4 -18 7 -21
14 -7 14 6 0 13 -4 16 -10z m-1375 -74 c0 -2 3 -12 6 -21 5 -12 2 -16 -12 -13
-13 2 -19 -3 -19 -17 0 -14 -8 -21 -27 -23 -16 -2 -28 -9 -28 -16 0 -12 -93
-86 -107 -86 -5 0 -1 6 8 13 8 7 18 20 22 30 3 9 13 17 22 17 8 0 15 7 15 15
0 15 31 49 76 83 28 20 44 27 44 18z m980 0 c0 -3 -4 -8 -10 -11 -5 -3 -10 -1
-10 4 0 6 5 11 10 11 6 0 10 -2 10 -4z m333 -283 c4 -2 7 -11 7 -20 0 -13 -9
-15 -52 -10 -55 7 -75 18 -63 37 6 10 87 5 108 -7z m-371 -30 c26 -25 29 -26
41 -9 27 36 50 16 73 -64 12 -41 26 -87 32 -102 10 -25 9 -28 -8 -28 -13 0
-28 15 -44 48 -14 26 -25 41 -26 33 0 -11 -3 -11 -17 0 -15 12 -16 12 -9 -6
18 -44 18 -55 2 -55 -18 0 -40 38 -67 118 -20 57 -24 92 -12 92 4 0 20 -12 35
-27z m182 -85 c11 -45 25 -78 32 -78 9 0 7 19 -8 71 -21 75 -16 96 18 85 14
-4 26 -30 43 -91 12 -47 20 -92 17 -100 -8 -22 -88 -20 -109 3 -18 20 -57 135
-57 169 0 20 5 24 23 21 19 -3 25 -15 41 -80z m145 40 c20 -31 21 -32 19 -8
-2 14 0 26 5 28 25 8 34 -5 54 -80 12 -46 24 -91 28 -100 11 -28 -15 -22 -51
13 l-32 31 5 -26 c7 -33 -20 -36 -41 -3 -13 21 -56 149 -56 168 0 5 11 9 24 9
16 0 31 -11 45 -32z m183 -5 c19 -23 52 -148 44 -168 -8 -22 -79 -20 -99 3
-21 23 -53 143 -44 165 9 24 79 23 99 0z m140 7 c13 0 19 -37 10 -61 -5 -13
-12 -36 -16 -52 -6 -26 -5 -27 26 -25 24 2 33 -2 36 -14 2 -12 -8 -20 -38 -28
-69 -18 -85 -12 -85 35 0 22 4 52 8 68 7 24 5 27 -18 27 -27 0 -41 20 -31 45
4 11 17 13 53 10 26 -2 51 -4 55 -5z m3408 -170 c0 -5 -5 -10 -11 -10 -5 0 -7
5 -4 10 3 6 8 10 11 10 2 0 4 -4 4 -10z m-4766 -76 c8 -22 3 -26 -34 -30 -25
-3 -30 0 -28 14 5 30 52 42 62 16z m-139 -44 c3 -5 12 -7 20 -3 24 9 17 -21
-7 -36 -21 -13 -22 -13 -10 2 10 11 10 17 1 22 -12 8 -31 -14 -23 -27 3 -4 -2
-5 -11 -1 -11 4 -13 8 -5 13 6 4 10 11 9 16 -4 24 14 34 26 14z m1139 -116
c80 -19 189 -90 260 -169 48 -54 56 -68 46 -80 -7 -8 -18 -15 -26 -15 -7 0
-19 -10 -25 -22 -10 -19 -8 -25 14 -44 15 -13 34 -20 45 -17 10 2 24 -3 31
-11 15 -17 46 -22 36 -6 -3 6 3 10 13 10 11 0 36 -20 57 -46 l38 -46 -31 16
c-18 9 -32 12 -32 7 0 -14 -57 -24 -96 -16 -31 5 -264 169 -264 185 0 4 16 25
35 47 19 23 35 46 35 52 0 17 -43 41 -72 41 -32 0 -34 -6 -11 -32 9 -10 14
-20 12 -22 -2 -2 -30 1 -62 6 -52 9 -62 15 -89 52 -49 68 -60 94 -48 116 11
21 23 21 134 -6z m-1187 -1 c0 -9 -4 -10 -14 -2 -7 6 -13 12 -13 14 0 1 6 2
13 2 8 0 14 -6 14 -14z m124 0 c13 -16 12 -17 -3 -4 -17 13 -22 21 -14 21 2 0
10 -8 17 -17z m4616 -5 c-3 -8 -6 -5 -6 6 -1 11 2 17 5 13 3 -3 4 -12 1 -19z
m-4810 -20 c-3 -8 -6 -5 -6 6 -1 11 2 17 5 13 3 -3 4 -12 1 -19z m1743 7 c36
-8 92 -24 125 -35 57 -20 63 -25 104 -92 39 -63 43 -74 34 -99 -13 -34 -9 -39
31 -39 25 0 44 -12 93 -62 l62 -63 -10 -42 c-15 -58 -47 -63 -113 -18 -41 28
-52 32 -69 23 -12 -6 -46 -8 -86 -5 -64 6 -68 8 -113 57 -27 28 -48 55 -48 59
0 13 77 51 103 51 18 0 40 -16 76 -56 28 -30 51 -59 51 -64 0 -4 7 -10 15 -14
27 -10 2 23 -84 113 -44 47 -78 88 -76 92 8 11 -54 89 -80 101 -27 12 -48 2
-25 -12 8 -5 12 -10 10 -12 -11 -8 -116 -48 -126 -48 -5 0 -29 20 -53 44 l-43
43 21 41 c17 33 27 41 53 45 65 8 84 7 148 -8z m3009 -19 c-2 -2 -26 -6 -54
-10 -34 -4 -45 -3 -35 4 14 9 99 15 89 6z m-4806 -76 c-3 -12 -8 -19 -11 -16
-5 6 5 36 12 36 2 0 2 -9 -1 -20z m3057 -16 c0 -14 -3 -14 -15 -4 -8 7 -15 14
-15 16 0 2 7 4 15 4 8 0 15 -7 15 -16z m-36 0 c21 -8 20 -24 -1 -25 -12 0 -13
-2 -5 -6 18 -7 -4 -33 -28 -33 -31 0 -42 24 -19 43 11 10 25 15 31 11 7 -4 8
-3 4 4 -8 14 -4 15 18 6z m-3044 -54 c-10 -19 -7 -22 18 -19 4 1 6 5 4 10 -1
6 7 5 18 -1 11 -6 18 -16 14 -22 -4 -7 -9 -6 -15 3 -8 14 -13 5 -9 -16 1 -5
-4 -4 -11 3 -7 6 -21 12 -31 12 -22 0 -22 5 -1 30 22 25 27 25 13 0z m2960
-10 c-8 -5 -11 -12 -7 -16 3 -4 13 -2 20 4 8 7 17 9 20 5 12 -11 7 -23 -9 -23
-8 0 -13 -4 -10 -8 7 -11 -41 -45 -65 -47 -21 -2 -21 -2 -13 19 3 9 12 12 22
9 11 -5 14 -2 9 9 -6 18 18 58 36 58 7 0 6 -4 -3 -10z m-2877 -24 c-4 -21 -2
-23 27 -20 19 2 29 0 25 -6 -3 -6 -19 -10 -36 -10 -16 0 -29 -5 -29 -11 0 -5
5 -7 10 -4 6 4 9 3 8 -2 -2 -4 2 -8 7 -8 6 0 9 4 7 8 -1 5 3 5 9 2 8 -5 8 -10
0 -18 -8 -8 -6 -17 7 -31 16 -20 16 -20 -2 -6 -11 8 -22 14 -25 13 -3 -2 -6 2
-6 7 0 6 -5 14 -11 18 -13 9 -27 45 -14 37 5 -3 7 7 5 25 -2 20 1 30 9 30 9 0
12 -9 9 -24z m3377 3 c0 -18 3 -19 15 -9 18 15 38 3 30 -17 -4 -13 -3 -14 9
-4 18 15 37 6 30 -13 -4 -10 2 -12 23 -8 25 5 27 4 14 -12 -12 -15 -11 -19 7
-36 25 -24 32 -25 32 -6 0 27 16 25 63 -6 46 -30 62 -58 32 -58 -12 0 -13 -4
-5 -19 13 -25 13 -71 0 -71 -6 0 -34 19 -63 43 -58 48 -74 55 -199 92 -49 14
-88 30 -88 35 0 11 82 108 93 109 4 1 7 -9 7 -20z m-3465 -48 c-9 -8 -36 -10
-30 -2 2 4 11 8 20 8 8 0 13 -3 10 -6z m60 -31 c3 -5 1 -10 -4 -10 -6 0 -11 5
-11 10 0 6 2 10 4 10 3 0 8 -4 11 -10z m4532 -29 c13 -6 30 -25 38 -41 9 -17
22 -30 30 -30 7 0 23 -13 34 -29 12 -16 32 -32 46 -35 14 -4 25 -12 26 -19 0
-15 56 -60 78 -62 41 -4 64 -22 140 -115 118 -144 166 -167 308 -148 16 2 76
-50 254 -222 l232 -225 -34 -7 c-34 -7 -71 -3 -314 27 -71 9 -148 14 -170 11
-22 -3 -85 -12 -140 -21 -55 -8 -112 -15 -127 -15 -27 0 -22 -6 -312 330 -31
36 -84 98 -119 139 -34 41 -90 107 -124 145 l-62 71 20 30 c11 17 50 81 87
143 50 84 69 109 77 99 6 -8 20 -19 32 -26z m-1747 -21 c-8 -5 -15 -13 -15
-18 0 -5 -8 -16 -17 -26 -10 -10 -18 -14 -18 -11 0 4 -9 -3 -19 -16 -11 -13
-23 -21 -27 -17 -7 8 44 58 59 58 4 0 7 6 7 14 0 14 14 24 35 25 6 0 3 -4 -5
-9z m-2719 -27 c13 -15 12 -15 -8 -4 -24 12 -29 21 -14 21 5 0 15 -7 22 -17z
m5675 -15 c16 -18 19 -24 7 -14 -13 11 -23 16 -23 11 0 -4 -7 -2 -15 5 -8 7
-12 16 -9 21 7 12 7 13 40 -23z m-5898 -13 c-3 -3 -9 2 -12 12 -6 14 -5 15 5
6 7 -7 10 -15 7 -18z m117 -55 c5 0 3 -5 -5 -11 -12 -9 -11 -10 7 -6 15 3 20
1 16 -9 -2 -7 -11 -10 -18 -8 -7 3 -16 1 -19 -4 -3 -5 0 -9 7 -8 6 0 13 -2 15
-6 1 -5 0 -8 -3 -8 -3 0 -12 0 -20 0 -11 0 -15 8 -13 28 2 18 -1 26 -10 24 -8
-1 -11 2 -7 8 3 6 11 8 16 5 5 -4 9 -1 9 4 0 6 -4 11 -10 11 -5 0 -10 8 -10
18 0 12 5 10 18 -10 9 -16 21 -28 27 -28z m2715 15 c0 -8 -7 -15 -15 -15 -8 0
-15 -5 -15 -11 0 -5 -4 -8 -9 -5 -5 4 -11 2 -13 -2 -4 -11 -123 -82 -137 -82
-6 0 -11 -5 -11 -11 0 -20 -33 -39 -47 -27 -10 8 -7 15 11 29 13 10 34 23 47
29 45 19 150 80 165 95 19 19 24 19 24 0z m-2824 -47 c4 -7 3 -8 -5 -4 -6 4
-18 3 -25 -3 -10 -9 -15 -8 -19 2 -6 16 39 21 49 5z m-93 -42 c4 -10 0 -12
-14 -9 -10 3 -16 9 -13 14 8 13 21 11 27 -5z m37 -10 c0 -3 -4 -8 -10 -11 -5
-3 -10 -1 -10 4 0 6 5 11 10 11 6 0 10 -2 10 -4z m-19 -53 c13 -16 12 -17 -3
-4 -17 13 -22 21 -14 21 2 0 10 -8 17 -17z m2639 -18 c0 -11 -28 -29 -39 -25
-2 1 -7 -4 -12 -11 -4 -8 -11 -10 -15 -6 -9 9 15 37 32 37 8 0 14 7 14 16 0 8
5 12 10 9 6 -3 10 -12 10 -20z m-2590 -15 c0 -5 -5 -10 -11 -10 -5 0 -7 5 -4
10 3 6 8 10 11 10 2 0 4 -4 4 -10z m90 -2 c0 6 4 12 10 12 5 0 7 -7 4 -15 -8
-21 -34 -19 -34 3 0 14 2 15 10 2 6 -10 10 -11 10 -2z m-138 -19 c2 -2 1 -3
-1 -2 -2 2 -9 -2 -16 -7 -8 -7 -12 -5 -12 4 0 12 22 16 29 5z m-152 -13 c-7
-7 -13 -7 -20 0 -6 6 -3 10 10 10 13 0 16 -4 10 -10z m190 10 c0 -3 -4 -8 -10
-11 -5 -3 -10 -1 -10 4 0 6 5 11 10 11 6 0 10 -2 10 -4z m-135 -15 c3 -5 2
-12 -3 -15 -5 -3 -9 1 -9 9 0 17 3 19 12 6z m2660 -13 c-11 -6 -23 -16 -27
-22 -5 -7 -8 -8 -8 0 0 15 22 34 40 34 11 -1 10 -4 -5 -12z m-2695 -44 c0 -8
-8 -14 -17 -14 -14 0 -15 2 -4 9 8 5 10 14 6 21 -5 9 -4 11 3 6 7 -4 12 -14
12 -22z m47 -43 c9 -14 8 -18 -3 -18 -7 0 -16 9 -20 19 -3 10 -10 15 -16 12
-7 -4 -8 -2 -4 4 9 14 28 7 43 -17z m3 -41 c0 -5 -2 -10 -4 -10 -3 0 -8 5 -11
10 -3 6 -1 10 4 10 6 0 11 -4 11 -10z m5 -30 c2 -4 -7 -5 -20 -2 -14 2 -25 8
-25 12 0 10 38 1 45 -10z m-125 -4 c0 -2 -8 -10 -17 -17 -16 -13 -17 -12 -4 4
13 16 21 21 21 13z m25 -16 c3 -5 1 -10 -4 -10 -6 0 -11 5 -11 10 0 6 2 10 4
10 3 0 8 -4 11 -10z m55 0 c0 -5 -2 -10 -4 -10 -3 0 -8 5 -11 10 -3 6 -1 10 4
10 6 0 11 -4 11 -10z m-45 -70 c-11 -10 -18 -11 -26 -3 -6 6 -18 9 -27 6 -9
-4 -13 -2 -9 4 3 5 22 9 41 9 31 -1 33 -3 21 -16z m-48 -27 c-14 -14 -19 -15
-29 -4 -11 10 -10 11 3 6 10 -4 20 -2 24 4 3 6 9 11 13 11 3 0 -1 -8 -11 -17z
m159 -5 c3 -5 0 -8 -7 -7 -8 1 -22 -1 -32 -6 -16 -7 -16 -8 -1 -20 16 -11 15
-12 -4 -17 -16 -4 -19 -2 -15 10 5 11 3 13 -8 7 -11 -6 -12 -5 -1 6 17 18 15
27 -5 31 -10 3 1 5 25 5 23 0 45 -4 48 -9z m-186 -38 c0 -5 -2 -10 -4 -10 -3
0 -8 5 -11 10 -3 6 -1 10 4 10 6 0 11 -4 11 -10z m47 -4 c0 -8 -6 -12 -14 -9
-7 3 -10 9 -7 14 8 14 21 11 21 -5z m20 -18 c-3 -8 -6 -5 -6 6 -1 11 2 17 5
13 3 -3 4 -12 1 -19z m-94 -14 c-5 -14 -3 -15 15 -5 19 10 22 9 22 -7 0 -20
-18 -42 -34 -42 -6 0 -5 4 2 9 10 6 10 10 -2 20 -16 13 -40 6 -31 -9 3 -5 1
-12 -5 -15 -6 -4 -9 -3 -8 2 1 4 -4 18 -11 31 -12 22 -11 23 8 12 19 -10 25
-7 22 13 0 4 6 7 14 7 9 0 12 -6 8 -16z m6955 -71 c78 -72 89 -86 90 -117 1
-30 -4 -39 -33 -59 -25 -17 -31 -27 -24 -37 20 -33 7 -28 -33 10 -66 64 -88
69 -35 9 39 -45 44 -55 31 -62 -11 -7 -25 -1 -47 19 -17 16 -26 22 -20 14 6
-8 14 -26 18 -38 6 -22 5 -23 -17 -17 -12 4 -36 17 -53 29 -29 20 -29 19 8
-25 20 -25 37 -56 37 -68 0 -21 21 -51 34 -51 3 0 6 8 6 18 1 23 74 -121 99
-196 27 -79 28 -165 2 -191 -10 -10 -21 -25 -23 -32 -3 -8 -8 -11 -12 -8 -8 8
14 59 26 59 13 0 9 110 -7 169 -19 72 -35 88 -35 35 -1 -57 -11 -118 -21 -128
-7 -8 -89 149 -89 171 0 4 -9 17 -21 29 -11 12 -23 37 -26 55 -13 84 -51 118
-165 149 -46 12 -84 23 -85 24 -6 6 49 71 73 86 14 10 25 20 24 24 -1 6 51 51
127 110 26 20 89 26 138 13 l29 -8 -19 21 c-11 12 -32 29 -47 38 -26 15 -49
47 -29 40 6 -1 50 -40 99 -85z m-7068 7 c-8 -5 -22 -9 -30 -9 -10 0 -8 3 5 9
27 12 43 12 25 0z m81 -20 c11 0 17 -5 14 -10 -4 -6 -11 -8 -16 -5 -5 4 -9 0
-10 -7 0 -14 -18 21 -18 37 1 6 3 4 6 -2 2 -7 14 -13 24 -13z m-111 -10 c0 -5
-2 -10 -4 -10 -3 0 -8 5 -11 10 -3 6 -1 10 4 10 6 0 11 -4 11 -10z m-25 -18
c-3 -3 -11 0 -18 7 -9 10 -8 11 6 5 10 -3 15 -9 12 -12z m55 -16 c0 -3 -4 -8
-10 -11 -5 -3 -10 -1 -10 4 0 6 5 11 10 11 6 0 10 -2 10 -4z m-11 -57 c-8 -5
-9 -9 -4 -9 6 0 3 -5 -5 -10 -10 -6 -11 -10 -2 -10 6 0 12 -5 12 -11 0 -8 -4
-9 -13 0 -8 6 -16 8 -19 5 -3 -2 -8 2 -11 10 -4 10 -1 13 8 10 8 -3 16 3 20
15 3 12 11 18 17 15 6 -4 5 -10 -3 -15z m-179 7 c0 -2 -8 -10 -17 -17 -16 -13
-17 -12 -4 4 13 16 21 21 21 13z m249 -53 c-1 -16 -2 -16 -6 -1 -2 10 -10 15
-19 11 -7 -3 -12 -8 -9 -12 2 -4 -2 -8 -9 -8 -8 0 -12 6 -9 14 3 7 9 13 15 13
5 0 6 10 3 23 l-7 22 21 -22 c11 -12 20 -30 20 -40z m2478 35 c-3 -8 -6 -5 -6
6 -1 11 2 17 5 13 3 -3 4 -12 1 -19z m-2607 -8 c0 -5 -4 -10 -9 -10 -6 0 -13
5 -16 10 -3 6 1 10 9 10 9 0 16 -4 16 -10z m87 -72 c-3 -8 -6 -5 -6 6 -1 11 2
17 5 13 3 -3 4 -12 1 -19z m-156 -21 c-10 -9 -11 -8 -5 6 3 10 9 15 12 12 3
-3 0 -11 -7 -18z m159 -7 c0 -5 -2 -10 -4 -10 -3 0 -8 5 -11 10 -3 6 -1 10 4
10 6 0 11 -4 11 -10z m-116 -9 c3 -5 -1 -11 -9 -14 -9 -4 -12 -1 -8 9 6 16 10
17 17 5z m40 -7 c-18 -15 -18 -15 -1 -10 11 3 16 2 12 -4 -3 -6 -2 -10 3 -10
15 0 10 -34 -8 -57 -17 -22 -18 -22 -35 -3 -17 18 -41 18 -30 0 3 -5 1 -11 -5
-15 -12 -8 -13 15 -1 34 7 10 13 11 31 1 26 -14 64 -5 40 10 -8 6 -10 10 -5
10 6 0 4 4 -3 8 -22 15 -22 48 0 49 20 2 20 1 2 -13z m-114 -29 c0 -5 -5 -3
-10 5 -5 8 -10 20 -10 25 0 6 5 3 10 -5 5 -8 10 -19 10 -25z m40 25 c0 -5 -2
-10 -4 -10 -3 0 -8 5 -11 10 -3 6 -1 10 4 10 6 0 11 -4 11 -10z m-133 -26 c-3
-3 -12 -4 -19 -1 -8 3 -5 6 6 6 11 1 17 -2 13 -5z m148 -4 c-3 -5 -10 -10 -16
-10 -5 0 -9 5 -9 10 0 6 7 10 16 10 8 0 12 -4 9 -10z m-25 -28 c0 -4 -9 -8
-19 -8 -11 0 -17 4 -15 8 3 4 12 8 20 8 8 0 14 -4 14 -8z m-135 -42 c-3 -5
-12 -10 -18 -10 -7 0 -6 4 3 10 19 12 23 12 15 0z m-48 -16 c-3 -3 -12 -4 -19
-1 -8 3 -5 6 6 6 11 1 17 -2 13 -5z m38 -26 c5 4 5 1 1 -5 -10 -18 -23 -16
-30 3 -5 13 -4 14 7 6 8 -7 18 -8 22 -4z m35 -42 c0 -2 -9 -6 -20 -9 -11 -3
-18 -1 -14 4 5 9 34 13 34 5z m-85 -34 c-3 -3 -11 0 -18 7 -9 10 -8 11 6 5 10
-3 15 -9 12 -12z m62 -26 c0 -8 -6 -12 -14 -9 -7 3 -10 9 -7 14 8 14 21 11 21
-5z m-97 -16 c-6 -11 -9 -24 -6 -29 3 -4 -1 -17 -10 -27 -14 -18 -14 -17 -3 5
10 21 9 23 -5 18 -8 -3 -18 -1 -22 5 -4 6 -3 8 3 5 5 -4 16 5 23 18 7 14 17
25 22 25 5 0 4 -9 -2 -20z m54 8 c-3 -4 -9 -8 -15 -8 -5 0 -9 4 -9 8 0 5 7 9
15 9 8 0 12 -4 9 -9z m26 -54 c22 -21 -1 -17 -35 7 -28 19 -28 20 -5 14 14 -4
32 -13 40 -21z m21 9 c13 -16 12 -17 -3 -4 -10 7 -18 15 -18 17 0 8 8 3 21
-13z m78 -5 c13 -22 12 -22 -5 -6 -17 17 -19 17 -38 0 -21 -17 -21 -17 -2 6
11 12 22 22 25 22 3 0 12 -10 20 -22z m-139 -34 c0 -13 -2 -24 -4 -24 -2 0
-13 -3 -23 -6 -16 -6 -16 -5 2 9 l20 16 -20 15 c-19 15 -19 16 -1 9 14 -5 17
-3 11 7 -5 9 -4 11 3 6 7 -4 12 -18 12 -32z m-40 -4 c0 -5 -5 -10 -11 -10 -5
0 -7 5 -4 10 3 6 8 10 11 10 2 0 4 -4 4 -10z m7578 -66 c-4 -3 -12 5 -18 18
-12 22 -12 22 6 6 10 -10 15 -20 12 -24z m-231 -150 c-3 -3 -12 -4 -19 -1 -8
3 -5 6 6 6 11 1 17 -2 13 -5z m448 -44 c27 -30 12 -34 -15 -5 -13 14 -19 25
-13 25 5 0 18 -9 28 -20z m-195 -19 c0 -6 -4 -13 -10 -16 -5 -3 -10 1 -10 9 0
9 5 16 10 16 6 0 10 -4 10 -9z m-200 -16 c0 -2 -10 -9 -22 -15 -22 -11 -22
-10 -4 4 21 17 26 19 26 11z m427 -38 c-6 -40 -78 -200 -85 -192 -3 3 -12 -5
-19 -17 l-14 -23 7 25 c3 14 23 61 44 105 21 44 42 92 45 108 10 39 29 34 22
-6z m614 -54 c13 -16 12 -17 -3 -4 -10 7 -18 15 -18 17 0 8 8 3 21 -13z
m-8948 -58 c-3 -9 -8 -14 -10 -11 -3 3 -2 9 2 15 9 16 15 13 8 -4z m68 -58
c-6 -8 -7 -18 -3 -22 4 -5 2 -5 -5 -1 -14 8 -6 36 9 36 7 0 6 -5 -1 -13z m-39
-22 c-2 -14 -9 -25 -14 -25 -5 0 -6 5 -2 12 4 7 3 8 -5 4 -21 -13 -6 -31 28
-32 23 -1 31 3 27 12 -3 8 -1 14 4 14 6 0 10 8 10 18 0 13 2 14 9 3 5 -7 14
-11 20 -7 7 5 9 1 5 -9 -4 -9 -13 -14 -22 -10 -12 5 -13 3 -2 -10 11 -13 11
-16 -1 -13 -8 2 -13 -2 -12 -9 2 -7 -7 -10 -23 -7 -14 3 -30 1 -37 -3 -7 -4
-19 -8 -27 -10 -11 -1 -9 2 4 12 16 12 17 15 4 20 -8 3 -15 12 -15 20 0 8 2
13 5 11 2 -3 13 4 25 15 26 24 25 24 19 -6z m124 -1 c-5 -14 -4 -15 9 -4 12
10 15 10 15 -1 0 -8 -5 -21 -10 -29 -9 -13 -10 -13 -10 0 0 13 -1 13 -10 0 -7
-11 -12 -12 -20 -4 -9 9 -8 17 2 33 15 25 33 28 24 5z m-186 -30 c0 -8 -19
-13 -24 -6 -3 5 1 9 9 9 8 0 15 -2 15 -3z m-190 -73 c0 -6 -4 -12 -8 -15 -5
-3 -9 1 -9 9 0 8 4 15 9 15 4 0 8 -4 8 -9z m87 -53 c-3 -8 -6 -5 -6 6 -1 11 2
17 5 13 3 -3 4 -12 1 -19z m-94 4 c3 7 6 3 6 -10 1 -20 -2 -21 -19 -12 -11 6
-20 16 -20 22 0 7 4 7 14 -1 11 -9 15 -9 19 1z m-7 -69 c-7 -7 -26 7 -26 19 0
6 6 6 15 -2 9 -7 13 -15 11 -17z m-232 -84 c-8 -14 -21 -11 -21 5 0 8 6 12 14
9 7 -3 10 -9 7 -14z m46 -4 c5 3 12 0 16 -6 4 -8 3 -9 -4 -5 -7 4 -12 2 -12
-3 0 -6 5 -11 11 -11 5 0 7 -5 3 -11 -3 -6 0 -16 7 -21 10 -7 9 -8 -6 -4 l-20
6 20 -16 c18 -15 18 -16 2 -10 -10 3 -26 6 -36 6 -10 0 -17 8 -17 19 0 14 4
17 12 10 16 -13 23 1 13 26 -4 11 -8 14 -8 6 -1 -8 -3 -12 -6 -9 -3 3 -2 13 2
24 4 11 8 13 11 6 2 -7 8 -10 12 -7z m-100 -19 c0 -2 -8 -10 -17 -17 -16 -13
-17 -12 -4 4 13 16 21 21 21 13z m-150 -10 c0 -2 -8 -10 -17 -17 -16 -13 -17
-12 -4 4 13 16 21 21 21 13z m65 -36 c-3 -5 -12 -10 -18 -10 -7 0 -6 4 3 10
19 12 23 12 15 0z m-65 -20 c-8 -5 -19 -10 -25 -10 -5 0 -3 5 5 10 8 5 20 10
25 10 6 0 3 -5 -5 -10z m80 1 c0 -5 -7 -12 -16 -15 -8 -3 -12 -11 -8 -17 4 -8
3 -9 -4 -5 -16 10 -15 33 1 39 19 8 27 8 27 -2z m-110 -43 c0 -6 -6 -5 -15 2
-8 7 -15 14 -15 16 0 2 7 1 15 -2 8 -4 15 -11 15 -16z m64 4 c3 -5 -1 -9 -9
-9 -8 0 -12 4 -9 9 3 4 7 8 9 8 2 0 6 -4 9 -8z m37 -36 c-7 -8 -11 -21 -9 -28
2 -7 -1 -15 -7 -16 -5 -1 -10 4 -9 11 1 21 16 47 26 47 6 0 6 -6 -1 -14z
m-114 -31 c0 -8 -4 -15 -9 -15 -5 0 -7 -4 -3 -9 3 -5 1 -12 -4 -15 -5 -4 -8 2
-6 11 2 10 4 24 4 31 1 17 18 15 18 -3z m73 1 c0 -3 -4 -8 -10 -11 -5 -3 -10
-1 -10 4 0 6 5 11 10 11 6 0 10 -2 10 -4z m-46 -24 c3 -5 -1 -9 -9 -9 -8 0
-12 4 -9 9 3 4 7 8 9 8 2 0 6 -4 9 -8z m-104 -12 c0 -5 -5 -10 -11 -10 -5 0
-7 5 -4 10 3 6 8 10 11 10 2 0 4 -4 4 -10z m-44 -22 c4 -7 4 -10 -1 -6 -4 4
-14 3 -21 -3 -8 -7 -14 -6 -20 2 -4 7 -3 9 4 5 6 -3 13 -2 17 4 8 13 12 13 21
-2z m101 -4 c-3 -3 -12 -4 -19 -1 -8 3 -5 6 6 6 11 1 17 -2 13 -5z m-157 -8
c0 -11 -19 -15 -25 -6 -3 5 1 10 9 10 9 0 16 -2 16 -4z m-110 -10 c0 -2 -7 -6
-15 -10 -8 -3 -15 -1 -15 4 0 6 7 10 15 10 8 0 15 -2 15 -4z m275 -5 c3 -5 0
-13 -6 -17 -7 -4 -9 -3 -5 4 4 6 -1 10 -13 9 -11 0 -17 -6 -13 -11 14 -23 8
-41 -14 -42 -21 -2 -22 0 -8 14 14 14 14 16 -1 25 -14 8 -15 11 -4 18 19 12
56 11 64 0z m-218 -16 c0 -8 -3 -13 -5 -10 -3 3 -12 -1 -21 -7 -10 -8 -9 -4 3
10 23 26 23 26 23 7z m-93 -10 c3 -8 1 -15 -4 -15 -6 0 -10 7 -10 15 0 8 2 15
4 15 2 0 6 -7 10 -15z m207 -18 c-10 -9 -11 -8 -5 6 3 10 9 15 12 12 3 -3 0
-11 -7 -18z m-174 -10 c0 -8 -6 -14 -13 -14 -7 0 -10 6 -7 14 3 7 8 13 12 13
4 0 8 -6 8 -13z m-57 -1 c0 -2 -7 -7 -16 -10 -8 -3 -12 -2 -9 4 6 10 25 14 25
6z m163 -26 c-7 -28 -13 -25 -13 6 0 14 4 23 9 20 5 -3 7 -15 4 -26z m-147
-39 c-3 -5 -22 -16 -41 -25 -20 -10 -33 -21 -30 -26 3 -5 1 -11 -4 -14 -22
-14 -18 13 4 34 14 13 25 20 25 16 0 -4 10 0 22 8 25 18 32 20 24 7z m-115
-54 c-10 -9 -11 -8 -5 6 3 10 9 15 12 12 3 -3 0 -11 -7 -18z m-96 -57 c-3 -5
-12 -10 -18 -10 -7 0 -6 4 3 10 19 12 23 12 15 0z m55 -22 c0 -6 -6 -5 -15 2
-8 7 -15 14 -15 16 0 2 7 1 15 -2 8 -4 15 -11 15 -16z m-80 -41 c0 -8 -6 -14
-14 -14 -8 0 -12 6 -9 14 3 7 9 13 14 13 5 0 9 -6 9 -13z m-70 -32 c14 -19 14
-19 -2 -6 -10 7 -18 18 -18 24 0 6 1 8 3 6 1 -2 9 -13 17 -24z m-55 -25 c-8
-13 56 -51 75 -44 9 3 11 2 5 -3 -5 -5 -22 -19 -37 -32 -25 -22 -27 -22 -52
-6 -14 9 -31 13 -37 9 -8 -4 -9 -3 -5 4 4 7 16 17 28 23 15 8 19 8 13 -1 -4
-7 1 -13 14 -17 11 -3 18 -10 14 -16 -3 -5 -1 -7 5 -4 12 8 10 32 -3 44 -4 4
-5 2 0 -6 5 -9 4 -12 -3 -7 -7 4 -12 14 -12 21 0 9 -6 12 -17 9 -15 -5 -16 -4
-3 5 8 6 11 11 7 11 -9 0 1 20 9 20 3 0 2 -4 -1 -10z m-65 -30 c5 9 9 8 13 -2
3 -9 -3 -14 -18 -14 -16 0 -21 4 -17 15 4 11 7 12 10 2 3 -10 6 -10 12 -1z
m-90 -50 c-18 -12 -30 -13 -30 -2 0 4 10 9 22 9 18 2 20 0 8 -7z m55 2 c-25
-17 11 -60 38 -45 11 7 8 -35 -3 -42 -6 -4 -8 -10 -5 -15 3 -5 -3 -14 -14 -20
-16 -8 -22 -6 -31 10 -7 13 -7 20 0 20 5 0 10 -6 10 -12 0 -9 3 -8 9 2 13 19
3 32 -17 22 -27 -13 -65 -8 -69 8 -4 12 -3 12 5 2 7 -11 10 -11 15 2 3 8 15
14 26 13 11 0 17 -5 14 -11 -4 -5 -1 -6 6 -2 9 6 8 13 -5 27 -9 10 -21 16 -27
12 -6 -3 -7 -1 -3 5 4 6 14 8 24 5 14 -6 15 -4 5 8 -10 12 -8 15 10 16 12 1
17 -1 12 -5z m-100 -22 c-3 -5 -12 -10 -18 -10 -7 0 -6 4 3 10 19 12 23 12 15
0z m145 0 c0 -5 -5 -10 -11 -10 -5 0 -7 5 -4 10 3 6 8 10 11 10 2 0 4 -4 4
-10z m-146 -48 c3 -5 -1 -9 -9 -9 -8 0 -15 4 -15 9 0 4 4 8 9 8 6 0 12 -4 15
-8z m54 -40 c10 9 15 9 22 -2 12 -19 2 -33 -17 -26 -9 4 -22 1 -29 -5 -14 -11
-34 -5 -34 12 0 5 7 9 16 9 9 0 12 5 8 13 -5 9 -4 9 6 0 10 -10 17 -10 28 -1z"/>
<path d="M5658 6073 c7 -3 16 -2 19 1 4 3 -2 6 -13 5 -11 0 -14 -3 -6 -6z"/>
<path d="M4604 5373 c3 -10 8 -30 12 -45 5 -25 24 -40 24 -20 0 23 -22 82 -31
82 -6 0 -8 -8 -5 -17z"/>
<path d="M6767 4679 c7 -7 15 -10 18 -7 3 3 -2 9 -12 12 -14 6 -15 5 -6 -5z"/>
<path d="M2675 3980 c3 -5 8 -10 11 -10 2 0 4 5 4 10 0 6 -5 10 -11 10 -5 0
-7 -4 -4 -10z"/>
<path d="M170 1740 c0 -13 18 -22 24 -11 3 5 -1 11 -9 15 -8 3 -15 1 -15 -4z"/>
<path d="M116 1732 c-3 -5 1 -9 9 -9 8 0 12 4 9 9 -3 4 -7 8 -9 8 -2 0 -6 -4
-9 -8z"/>
<path d="M4616 10775 c-18 -21 -22 -50 -6 -40 6 4 17 2 24 -4 10 -8 16 -8 25
3 10 11 9 16 -5 24 -11 6 -13 11 -5 16 6 4 11 4 11 -1 0 -4 4 -1 10 7 7 12 12
11 32 -5 l23 -20 -19 22 c-22 27 -68 26 -90 -2z m19 -4 c-3 -5 -1 -12 5 -16 5
-3 10 -10 10 -16 0 -5 -9 -4 -19 3 -15 9 -17 15 -9 25 12 15 22 18 13 4z"/>
<path d="M4727 10788 c7 -8 9 -19 5 -24 -4 -4 0 -3 9 4 9 6 18 11 20 9 2 -1 3
0 1 3 -2 3 -7 5 -10 5 -4 0 -14 4 -22 10 -12 7 -13 6 -3 -7z"/>
<path d="M4685 10750 c-3 -5 -1 -10 4 -10 6 0 11 5 11 10 0 6 -2 10 -4 10 -3
0 -8 -4 -11 -10z"/>
<path d="M4785 10750 c4 -6 11 -8 16 -5 14 9 11 15 -7 15 -8 0 -12 -5 -9 -10z"/>
<path d="M4898 10743 c7 -3 16 -2 19 1 4 3 -2 6 -13 5 -11 0 -14 -3 -6 -6z"/>
<path d="M4570 10725 c-10 -12 -10 -15 4 -15 9 0 16 7 16 15 0 8 -2 15 -4 15
-2 0 -9 -7 -16 -15z"/>
<path d="M4676 10716 c5 -12 0 -13 -32 -5 -28 8 -39 8 -45 -2 -9 -15 -2 -32
11 -24 9 5 32 -18 29 -31 -5 -29 2 -35 31 -29 18 4 30 3 30 -4 0 -6 -8 -7 -17
-4 -12 5 -15 2 -10 -9 10 -28 -6 -29 -30 -2 -13 15 -23 31 -23 36 0 4 -5 8
-11 8 -8 0 -8 -4 0 -14 9 -10 9 -20 2 -33 -7 -15 -5 -22 10 -31 17 -11 26 -9
54 8 19 12 39 19 44 16 5 -4 13 -1 17 5 5 8 3 9 -5 5 -8 -5 -14 -1 -18 12 -5
20 -43 39 -43 21 0 -4 -7 -6 -16 -2 -12 5 -13 7 -2 14 10 6 10 11 0 21 -16 16
-15 28 3 28 8 0 15 -8 15 -17 0 -15 2 -16 10 -3 8 13 14 8 12 -11 -1 -3 5 -6
13 -6 8 0 14 3 13 6 -2 19 3 31 11 26 5 -3 13 0 17 6 4 8 3 9 -4 5 -7 -4 -12
-2 -12 4 0 6 -8 4 -17 -5 -16 -16 -17 -16 -25 4 -4 11 -10 21 -12 21 -3 0 -3
-6 0 -14z m-28 -135 c3 -8 -1 -12 -9 -9 -7 2 -15 10 -17 17 -3 8 1 12 9 9 7
-2 15 -10 17 -17z"/>
<path d="M4765 10719 c-4 -6 -5 -12 -2 -15 2 -3 7 2 10 11 7 17 1 20 -8 4z"/>
<path d="M4766 10685 c-11 -8 -15 -15 -9 -15 7 0 15 5 18 10 4 6 11 7 17 4 7
-4 8 -2 4 4 -9 14 -7 15 -30 -3z"/>
<path d="M4727 10651 c-3 -13 -1 -18 9 -14 7 2 10 11 7 19 -7 19 -10 18 -16
-5z"/>
<path d="M4748 10618 c9 -9 9 -15 -1 -27 -10 -14 -10 -14 5 -3 17 14 14 42 -5
42 -8 0 -7 -4 1 -12z"/>
<path d="M4749 10563 c-1 -5 -1 -11 0 -15 0 -5 -4 -8 -11 -8 -6 0 -8 -3 -5 -6
8 -8 37 14 37 27 0 11 -20 12 -21 2z"/>
<path d="M4740 10506 c0 -2 7 -7 16 -10 8 -3 12 -2 9 4 -6 10 -25 14 -25 6z"/>
<path d="M4657 10473 c-4 -6 -2 -15 4 -18 5 -4 8 -13 5 -21 -6 -16 33 -84 48
-84 5 0 1 9 -8 19 -10 11 -15 24 -12 29 3 6 -1 13 -10 16 -8 3 -12 10 -9 16 4
6 10 8 15 5 11 -7 7 22 -5 32 -4 4 -5 2 -1 -4 4 -7 3 -13 -3 -13 -5 0 -11 8
-13 18 -2 12 -6 13 -11 5z"/>
<path d="M4720 10470 c0 -5 5 -10 10 -10 6 0 10 5 10 10 0 6 -4 10 -10 10 -5
0 -10 -4 -10 -10z"/>
<path d="M4713 10435 c-3 -9 -3 -18 0 -21 9 -9 27 6 27 22 0 19 -19 18 -27 -1z"/>
<path d="M4550 10380 c0 -5 5 -10 11 -10 5 0 7 5 4 10 -3 6 -8 10 -11 10 -2 0
-4 -4 -4 -10z"/>
<path d="M4525 10350 c-3 -5 -1 -10 4 -10 6 0 11 5 11 10 0 6 -2 10 -4 10 -3
0 -8 -4 -11 -10z"/>
<path d="M4605 10351 c-3 -5 -2 -12 3 -15 5 -3 9 1 9 9 0 17 -3 19 -12 6z"/>
<path d="M4546 10331 c-4 -5 4 -7 16 -4 14 3 19 1 12 -4 -6 -4 -13 -16 -17
-26 -4 -10 -12 -16 -19 -12 -7 4 -4 -1 6 -9 27 -22 43 -20 51 5 5 14 12 18 23
14 9 -3 13 -3 9 1 -4 4 -1 14 6 23 11 14 10 14 -6 2 -15 -12 -20 -11 -35 3
-21 18 -38 21 -46 7z m34 -51 c0 -5 -5 -10 -11 -10 -5 0 -7 5 -4 10 3 6 8 10
11 10 2 0 4 -4 4 -10z"/>
<path d="M4755 10319 c-4 -6 -5 -12 -2 -15 2 -3 7 2 10 11 7 17 1 20 -8 4z"/>
<path d="M4513 10305 c0 -8 4 -12 9 -9 5 3 6 10 3 15 -9 13 -12 11 -12 -6z"/>
<path d="M4484 10288 c2 -13 -3 -31 -12 -40 -13 -16 -12 -18 11 -27 33 -13 40
-26 22 -41 -17 -14 -19 -48 -5 -70 7 -11 10 -4 10 27 0 40 1 41 30 37 38 -6
39 10 3 29 -16 7 -27 19 -25 25 1 7 -5 12 -13 12 -8 0 -15 5 -15 10 0 23 36 0
40 -25 3 -15 10 -20 10 -7 0 7 5 12 11 12 5 0 7 -5 3 -12 -4 -7 -3 -8 4 -4 21
13 14 38 -8 31 -12 -4 -19 -2 -18 3 2 6 -1 10 -5 10 -12 1 -36 35 -31 44 3 5
0 8 -5 8 -6 0 -9 -10 -7 -22z"/>
<path d="M4447 10284 c-8 -8 1 -24 14 -24 5 0 9 7 9 15 0 15 -12 20 -23 9z"/>
<path d="M4653 10262 c-10 -7 -10 -12 0 -26 12 -17 15 -17 30 -2 9 9 19 16 22
16 4 -1 9 1 12 3 12 12 -27 0 -43 -13 -16 -14 -17 -13 -12 8 4 12 5 22 5 22
-1 0 -8 -4 -14 -8z"/>
<path d="M4580 10205 c0 -22 6 -38 15 -41 8 -4 15 -14 15 -23 0 -14 2 -14 10
-1 5 8 12 11 16 7 4 -3 1 -13 -6 -22 -11 -13 -10 -14 3 -10 24 10 28 41 5 42
-11 1 -26 10 -33 20 -11 14 -10 19 4 30 13 11 13 13 1 11 -8 -2 -14 3 -12 10
1 6 -2 12 -8 12 -5 0 -10 -16 -10 -35z"/>
<path d="M4523 10140 c-1 -11 0 -20 2 -20 2 0 9 9 15 20 8 15 8 20 -3 20 -7 0
-13 -9 -14 -20z"/>
<path d="M4567 10121 c3 -24 1 -32 -5 -22 -7 10 -9 6 -9 -13 0 -14 3 -26 8
-26 5 0 8 3 7 8 0 4 2 15 7 25 7 17 9 17 32 1 l26 -16 -19 25 c-11 14 -22 23
-26 21 -4 -2 -9 0 -12 5 -4 5 2 11 11 13 15 3 15 5 -3 10 -20 5 -21 2 -17 -31z"/>
<path d="M4504 10060 c-28 -11 -30 -59 -3 -57 11 1 19 5 19 10 0 5 -7 7 -15 3
-13 -4 -13 -2 -5 14 6 10 18 24 28 29 21 13 5 13 -24 1z"/>
<path d="M4566 10033 c-4 -5 -13 -8 -19 -8 -7 -1 -11 -6 -9 -13 1 -7 -2 -12
-8 -12 -5 0 -10 -4 -10 -10 0 -19 28 -10 33 10 3 11 16 24 29 29 14 6 17 10 7
10 -9 1 -19 -2 -23 -6z"/>
<path d="M4442 10018 c6 -18 28 -21 28 -4 0 9 -7 16 -16 16 -9 0 -14 -5 -12
-12z"/>
<path d="M4594 10008 c-4 -6 -3 -8 3 -5 13 8 26 -20 16 -36 -4 -7 0 -7 9 1 15
12 15 15 0 33 -19 22 -19 22 -28 7z"/>
<path d="M4475 9980 c-3 -5 -1 -10 4 -10 6 0 11 5 11 10 0 6 -2 10 -4 10 -3 0
-8 -4 -11 -10z"/>
<path d="M4565 9970 c-3 -6 1 -7 9 -4 18 7 21 14 7 14 -6 0 -13 -4 -16 -10z"/>
<path d="M4570 9936 c0 -2 7 -7 16 -10 8 -3 12 -2 9 4 -6 10 -25 14 -25 6z"/>
<path d="M4610 9924 c0 -8 5 -12 10 -9 6 4 8 11 5 16 -9 14 -15 11 -15 -7z"/>
<path d="M4640 9916 c0 -8 4 -17 9 -20 5 -4 7 3 4 14 -6 23 -13 26 -13 6z"/>
<path d="M4551 9907 c-8 -10 -7 -14 2 -14 8 0 14 6 14 14 0 7 -1 13 -2 13 -2
0 -8 -6 -14 -13z"/>
<path d="M4610 9890 c0 -5 5 -10 11 -10 5 0 7 5 4 10 -3 6 -8 10 -11 10 -2 0
-4 -4 -4 -10z"/>
<path d="M4576 9875 c-11 -8 -15 -15 -9 -15 6 0 16 7 23 15 16 19 11 19 -14 0z"/>
<path d="M4580 9816 c0 -8 4 -17 9 -20 5 -4 7 3 4 14 -6 23 -13 26 -13 6z"/>
<path d="M4500 9791 c0 -5 7 -15 17 -22 15 -13 15 -12 4 9 -12 23 -21 28 -21
13z"/>
<path d="M4540 9730 c-13 -8 -13 -10 2 -10 9 0 20 5 23 10 8 13 -5 13 -25 0z"/>
<path d="M4417 9723 c-3 -4 1 -19 8 -33 l13 -25 11 29 c8 21 16 26 29 21 13
-5 14 -4 5 6 -10 10 -16 9 -28 -1 -14 -11 -18 -11 -25 -1 -4 7 -10 9 -13 4z"/>
<path d="M4622 9700 c0 -14 2 -19 5 -12 2 6 2 18 0 25 -3 6 -5 1 -5 -13z"/>
<path d="M4494 9698 c-4 -6 -3 -8 4 -4 5 3 13 0 15 -6 3 -8 6 -6 6 5 1 19 -14
23 -25 5z"/>
<path d="M4578 9683 c7 -3 16 -2 19 1 4 3 -2 6 -13 5 -11 0 -14 -3 -6 -6z"/>
<path d="M4494 9669 c1 -7 10 -13 19 -15 9 -1 15 2 11 7 -3 5 -9 7 -14 4 -4
-3 -11 0 -13 5 -3 6 -4 5 -3 -1z"/>
<path d="M4463 9649 c10 -17 12 -30 6 -42 -8 -13 -6 -15 6 -11 14 6 20 -6 16
-29 -1 -5 3 -6 8 -3 5 4 12 2 16 -4 3 -5 12 -10 18 -10 7 0 4 5 -5 11 -10 5
-18 17 -18 24 0 8 -5 15 -11 15 -5 0 -8 3 -6 8 3 4 -6 21 -20 37 -21 25 -23
26 -10 4z"/>
<path d="M4336 9644 c-5 -14 -4 -15 9 -4 17 14 19 20 6 20 -5 0 -12 -7 -15
-16z"/>
<path d="M4435 9620 c-3 -5 1 -10 10 -10 9 0 13 5 10 10 -3 6 -8 10 -10 10 -2
0 -7 -4 -10 -10z"/>
<path d="M4553 9605 c0 -8 4 -12 9 -9 4 3 8 9 8 15 0 5 -4 9 -8 9 -5 0 -9 -7
-9 -15z"/>
<path d="M4384 9594 c3 -9 6 -20 6 -25 0 -15 22 -10 37 9 14 16 14 16 9 -1 -3
-11 -2 -16 4 -12 6 3 10 1 10 -4 0 -6 5 -11 10 -11 6 0 10 7 10 16 0 8 -4 13
-9 10 -5 -4 -11 -1 -13 6 -6 18 -38 18 -39 0 0 -12 -3 -10 -9 6 -5 12 -12 22
-16 22 -3 0 -3 -7 0 -16z"/>
<path d="M4580 9566 c0 -8 4 -17 8 -20 4 -2 8 4 8 15 0 10 -4 19 -8 19 -4 0
-8 -6 -8 -14z"/>
<path d="M4455 9536 l-30 -13 27 0 c15 0 29 6 32 13 3 8 4 14 3 14 -1 -1 -15
-7 -32 -14z"/>
<path d="M4501 9524 c0 -11 3 -14 6 -6 3 7 2 16 -1 19 -3 4 -6 -2 -5 -13z"/>
<path d="M4526 9503 c-6 -14 -5 -15 5 -6 7 7 10 15 7 18 -3 3 -9 -2 -12 -12z"/>
<path d="M4618 9513 c7 -3 16 -2 19 1 4 3 -2 6 -13 5 -11 0 -14 -3 -6 -6z"/>
<path d="M4436 9468 l-19 -33 23 21 c12 12 21 27 19 33 -3 7 -13 -3 -23 -21z"/>
<path d="M4490 9490 c0 -5 5 -10 11 -10 5 0 7 5 4 10 -3 6 -8 10 -11 10 -2 0
-4 -4 -4 -10z"/>
<path d="M4630 9485 c-11 -13 -10 -14 4 -9 9 3 16 10 16 15 0 13 -6 11 -20 -6z"/>
<path d="M4470 9461 c0 -11 4 -22 9 -25 4 -3 6 6 3 19 -5 30 -12 33 -12 6z"/>
<path d="M4430 9426 c0 -2 7 -7 16 -10 8 -3 12 -2 9 4 -6 10 -25 14 -25 6z"/>
<path d="M4403 9393 c9 -2 15 -8 12 -13 -3 -4 2 -13 10 -20 10 -9 15 -9 15 -1
0 6 3 10 8 9 4 -2 8 1 10 7 2 5 -1 11 -7 13 -6 2 -11 -1 -11 -7 0 -6 -4 -11
-10 -11 -5 0 -7 7 -4 15 5 11 0 15 -17 14 -18 -1 -19 -3 -6 -6z"/>
<path d="M4420 9300 c-7 -4 -19 -6 -27 -3 -8 3 -13 -2 -13 -13 0 -16 2 -17 10
-4 9 13 10 13 10 0 0 -13 2 -13 9 -1 5 8 18 12 30 8 12 -3 21 -2 21 3 0 13
-26 19 -40 10z"/>
<path d="M4489 9293 c-13 -16 -12 -17 4 -4 9 7 17 15 17 17 0 8 -8 3 -21 -13z"/>
<path d="M4434 9267 c5 -15 2 -17 -17 -11 -21 6 -21 6 3 -14 14 -12 20 -21 15
-22 -6 0 -17 6 -24 13 -8 6 -5 -1 4 -16 16 -24 16 -30 4 -39 -11 -7 -11 -11
-1 -15 6 -2 9 -10 6 -15 -4 -7 -2 -8 5 -4 6 4 9 12 6 17 -4 5 2 9 12 9 15 0
16 2 3 10 -8 5 -10 10 -5 10 6 0 3 5 -5 10 -12 7 -10 11 10 19 19 7 20 10 7
10 -10 1 -15 5 -12 11 3 5 1 18 -5 27 -11 17 -11 17 -6 0z"/>
<path d="M4300 9219 c0 -5 5 -7 10 -4 6 3 10 8 10 11 0 2 -4 4 -10 4 -5 0 -10
-5 -10 -11z"/>
<path d="M4386 9204 c-8 -21 -4 -25 14 -14 11 7 12 12 4 20 -8 8 -13 7 -18 -6z"/>
<path d="M4501 9206 c-8 -10 -9 -16 -1 -21 5 -3 10 -5 11 -3 4 18 7 38 4 38
-1 0 -8 -6 -14 -14z"/>
<path d="M4349 9185 c-1 -6 -1 -14 0 -19 1 -5 -7 -6 -19 -3 -11 3 -22 2 -24
-2 -8 -12 37 -11 53 2 12 10 14 9 7 -8 -6 -16 -5 -18 5 -7 11 10 10 15 -4 29
-9 10 -18 13 -18 8z"/>
<path d="M4505 9140 c3 -5 8 -10 11 -10 2 0 4 5 4 10 0 6 -5 10 -11 10 -5 0
-7 -4 -4 -10z"/>
<path d="M4319 9120 c-8 -6 -5 -11 10 -19 16 -9 27 -8 48 3 16 8 24 16 18 17
-29 6 -65 5 -76 -1z"/>
<path d="M4436 9118 c3 -4 -1 -8 -8 -8 -10 0 -10 -2 1 -9 8 -5 20 -7 27 -4 16
6 8 30 -11 30 -8 0 -12 -4 -9 -9z"/>
<path d="M4265 9100 c-6 -9 1 -14 18 -11 4 0 7 -3 7 -7 0 -14 47 -31 69 -25
13 3 21 1 21 -7 0 -8 9 -11 25 -8 13 3 26 0 28 -6 2 -5 11 5 20 24 l17 35 -20
-24 c-18 -21 -20 -21 -21 -5 0 15 -2 16 -7 4 -7 -16 -17 -18 -44 -6 -9 4 -21
5 -27 2 -5 -4 -14 2 -20 11 -8 13 -10 14 -11 4 0 -11 -6 -8 -20 7 -24 25 -26
26 -35 12z"/>
<path d="M4394 9020 c1 -7 5 -11 10 -10 5 1 12 -4 17 -11 4 -8 11 -10 16 -6 8
9 -17 28 -28 21 -4 -2 -10 1 -12 6 -4 7 -5 6 -3 0z"/>
<path d="M4506 9022 c-3 -5 1 -9 9 -9 8 0 12 4 9 9 -3 4 -7 8 -9 8 -2 0 -6 -4
-9 -8z"/>
<path d="M4485 8971 c-3 -5 -2 -12 3 -15 5 -3 9 1 9 9 0 17 -3 19 -12 6z"/>
<path d="M4380 8900 c0 -5 9 -14 20 -20 11 -6 20 -9 20 -8 0 2 -9 11 -20 21
-11 9 -20 13 -20 7z"/>
<path d="M4370 8856 c14 -14 13 -29 -2 -20 -9 5 -9 2 1 -9 7 -9 19 -17 25 -17
7 0 8 3 1 8 -6 4 -10 16 -9 28 1 12 -5 21 -13 21 -9 0 -10 -4 -3 -11z"/>
<path d="M4410 8844 c0 -8 5 -12 10 -9 6 4 8 11 5 16 -9 14 -15 11 -15 -7z"/>
<path d="M4331 8834 c6 -7 9 -21 6 -31 -4 -14 -5 -13 -6 5 -1 14 -7 22 -18 21
-11 0 -13 -3 -5 -6 17 -7 15 -33 -3 -33 -8 0 -14 6 -12 12 1 7 -9 13 -23 15
-14 1 -17 -1 -7 -3 9 -3 17 -10 17 -15 0 -6 -4 -7 -10 -4 -6 3 -10 -4 -10 -16
0 -22 0 -22 -15 -3 -13 17 -14 17 -15 2 0 -22 18 -32 34 -19 7 6 16 8 19 4 4
-3 7 -1 7 6 0 7 4 10 9 6 5 -3 12 -1 16 5 4 6 10 8 15 5 5 -3 11 -1 15 5 10
16 28 12 21 -5 -3 -8 -1 -15 4 -15 16 0 11 30 -5 36 -8 4 -15 14 -15 23 0 10
-7 18 -15 18 -11 0 -12 -4 -4 -13z"/>
<path d="M4439 8833 c-13 -16 -12 -17 4 -4 9 7 17 15 17 17 0 8 -8 3 -21 -13z"/>
<path d="M4400 8756 c0 -2 7 -7 16 -10 8 -3 12 -2 9 4 -6 10 -25 14 -25 6z"/>
<path d="M4341 8676 c-7 -8 -20 -12 -28 -9 -11 4 -14 2 -9 -5 4 -7 10 -12 14
-12 13 1 46 30 40 35 -3 3 -11 -1 -17 -9z"/>
<path d="M4370 8680 c0 -5 5 -10 11 -10 5 0 7 5 4 10 -3 6 -8 10 -11 10 -2 0
-4 -4 -4 -10z"/>
<path d="M4306 8632 c-2 -4 4 -14 15 -20 19 -12 19 -11 9 8 -12 22 -16 24 -24
12z"/>
<path d="M4355 8598 c4 -11 2 -18 -5 -18 -6 0 -8 -5 -4 -11 5 -8 10 -6 16 6 7
11 6 21 -2 28 -8 9 -10 8 -5 -5z"/>
<path d="M4432 8598 c2 -6 10 -13 16 -14 7 -1 8 0 2 3 -5 2 -8 9 -4 14 3 5 0
9 -6 9 -7 0 -10 -5 -8 -12z"/>
<path d="M4386 8565 c-3 -8 -1 -15 4 -15 13 0 22 18 11 24 -5 3 -11 -1 -15 -9z"/>
<path d="M4250 8545 c7 -9 15 -13 17 -11 7 7 -7 26 -19 26 -6 0 -6 -6 2 -15z"/>
<path d="M4304 8538 c-12 -14 -13 -18 -3 -10 9 6 19 9 22 5 4 -3 7 1 7 10 0
22 -3 21 -26 -5z"/>
<path d="M4349 8548 c0 -2 -2 -11 -4 -21 -3 -15 -1 -16 11 -6 7 6 11 15 8 20
-5 9 -13 12 -15 7z"/>
<path d="M4210 8517 c0 -5 9 -7 20 -4 11 3 18 1 15 -3 -3 -5 -1 -11 4 -14 10
-7 26 12 18 20 -10 10 -57 11 -57 1z"/>
<path d="M4213 8492 c-8 -5 -4 -14 13 -29 13 -12 24 -18 24 -13 0 5 -5 12 -11
15 -6 4 -8 13 -5 21 6 15 -2 18 -21 6z"/>
<path d="M4275 8491 c-3 -5 -2 -12 3 -15 5 -3 9 1 9 9 0 17 -3 19 -12 6z"/>
<path d="M4325 8482 c-3 -3 -5 -10 -5 -16 0 -6 5 -4 10 4 8 13 10 12 10 -2 0
-10 3 -18 8 -18 14 1 57 29 47 31 -26 5 -65 5 -70 1z"/>
<path d="M4223 8426 c1 -6 -4 -10 -11 -8 -8 1 -12 -5 -11 -15 1 -10 -1 -26 -5
-35 -8 -18 -1 -38 15 -38 5 0 9 8 9 18 0 14 2 15 10 2 5 -8 10 -10 10 -4 0 6
10 16 23 23 22 11 22 11 -3 6 l-25 -6 24 14 c20 12 21 15 6 21 -11 4 -24 -2
-36 -16 -12 -15 -18 -17 -17 -8 2 8 13 22 26 31 23 16 23 16 3 22 -12 3 -19 0
-18 -7z"/>
<path d="M4312 8428 c-7 -7 -12 -16 -12 -21 0 -5 7 -1 16 8 9 9 14 18 12 20
-2 3 -10 -1 -16 -7z"/>
<path d="M4420 8426 c0 -8 4 -17 9 -20 5 -4 7 3 4 14 -6 23 -13 26 -13 6z"/>
<path d="M4110 8422 c0 -4 9 -8 20 -9 11 -1 18 2 15 8 -7 11 -35 12 -35 1z"/>
<path d="M4350 8400 c-12 -8 -12 -10 -1 -10 8 0 12 -3 8 -6 -3 -3 -1 -17 4
-31 8 -21 7 -24 -5 -20 -9 4 -18 2 -20 -2 -3 -5 4 -8 16 -7 16 1 22 8 22 29 1
16 -2 31 -6 33 -5 3 -6 10 -3 15 8 11 4 11 -15 -1z"/>
<path d="M4319 8395 c-1 -3 -2 -10 -3 -15 0 -6 -7 -14 -14 -19 -11 -7 -11 -9
2 -14 9 -4 16 -1 17 6 0 7 2 20 4 30 3 15 -3 26 -6 12z"/>
<path d="M4140 8336 c0 -6 -9 -17 -21 -24 -12 -8 -18 -9 -14 -3 3 6 -1 11 -10
11 -13 0 -14 -4 -5 -20 6 -11 15 -18 19 -15 11 6 23 -23 15 -36 -3 -6 0 -17 8
-26 9 -12 10 -15 0 -9 -7 4 -15 1 -18 -8 -3 -9 -10 -13 -15 -10 -5 3 -6 -2 -3
-11 6 -14 10 -13 33 8 14 14 32 22 40 19 9 -3 11 0 6 8 -6 10 -2 11 18 6 15
-3 29 -1 33 6 4 6 3 8 -4 5 -13 -9 -44 2 -37 14 3 4 12 6 19 3 18 -7 30 12 15
22 -8 4 -9 3 -5 -5 5 -8 0 -10 -18 -7 -15 3 -24 1 -21 -4 6 -9 -12 -23 -32
-26 -7 -1 -13 2 -13 7 0 5 6 9 14 9 9 0 12 7 9 18 -3 13 4 22 22 30 15 7 23
17 19 23 -4 8 -9 7 -15 -2 -6 -11 -11 -11 -21 -1 -9 9 -9 12 0 12 7 0 12 4 12
8 0 5 -7 9 -15 9 -8 0 -15 -5 -15 -11z m9 -43 c-21 -28 -23 -29 -16 -11 3 9 1
19 -6 22 -7 2 -1 5 12 5 21 1 22 -1 10 -16z"/>
<path d="M4249 8323 c-12 -14 -12 -16 0 -8 11 6 13 4 8 -8 -3 -9 -1 -19 5 -23
7 -4 8 -3 4 4 -4 7 -3 12 1 12 5 0 9 9 10 20 2 24 -10 26 -28 3z"/>
<path d="M4305 8289 c-4 -6 -5 -12 -2 -15 2 -3 7 2 10 11 7 17 1 20 -8 4z"/>
<path d="M4276 8274 c-3 -9 -11 -12 -18 -8 -7 4 -9 3 -5 -1 14 -16 33 -13 34
6 2 23 -3 24 -11 3z"/>
<path d="M4337 8256 c-3 -8 -2 -18 3 -21 13 -8 20 9 11 24 -6 10 -10 9 -14 -3z"/>
<path d="M4323 8203 c4 -6 4 -13 0 -16 -5 -2 -3 -2 4 -1 6 2 14 -2 17 -9 3 -8
5 -8 5 -1 1 6 -7 18 -16 25 -9 8 -14 9 -10 2z"/>
<path d="M4277 8169 c7 -7 15 -10 18 -7 3 3 -2 9 -12 12 -14 6 -15 5 -6 -5z"/>
<path d="M4263 8144 c0 -16 13 -19 21 -5 3 5 0 11 -7 14 -8 3 -14 -1 -14 -9z"/>
<path d="M4191 8121 c-11 -7 -11 -9 0 -14 10 -4 9 -6 -3 -6 -16 -1 -16 -4 3
-41 21 -40 21 -41 3 -55 -18 -13 -18 -14 3 -9 20 6 41 44 23 44 -12 0 -6 28 8
42 9 9 12 8 12 -6 0 -9 5 -14 10 -11 16 10 -8 35 -26 28 -12 -5 -19 7 -15 30
1 9 -1 9 -18 -2z m19 -41 c0 -5 -4 -10 -10 -10 -5 0 -10 5 -10 10 0 6 5 10 10
10 6 0 10 -4 10 -10z"/>
<path d="M4128 8029 c-19 -11 -13 -49 9 -49 8 0 11 -5 8 -10 -4 -6 -10 -8 -14
-6 -4 3 -13 -5 -21 -17 -12 -20 -12 -21 2 -9 13 10 17 10 21 0 4 -10 6 -10 6
0 1 6 6 12 12 12 5 0 7 -5 3 -11 -11 -19 29 7 51 32 18 22 18 22 1 9 -11 -8
-22 -15 -25 -15 -3 0 -5 -3 -3 -7 1 -5 -3 -8 -9 -8 -6 0 -9 10 -8 23 1 12 -2
32 -7 44 -7 16 -13 19 -26 12z"/>
<path d="M4161 8024 c0 -11 3 -14 6 -6 3 7 2 16 -1 19 -3 4 -6 -2 -5 -13z"/>
<path d="M4275 8009 c-4 -6 -5 -12 -2 -15 2 -3 7 2 10 11 7 17 1 20 -8 4z"/>
<path d="M4239 8000 c-5 -35 -3 -67 3 -64 7 5 8 74 1 74 -1 0 -4 -4 -4 -10z"/>
<path d="M4265 7941 c-3 -5 0 -13 6 -17 7 -4 9 -3 5 4 -3 5 0 13 6 15 9 4 10
6 1 6 -6 1 -14 -3 -18 -8z"/>
<path d="M7620 5982 c0 -5 15 -22 33 -36 17 -14 40 -34 50 -43 9 -9 17 -12 17
-7 0 10 -24 34 -77 78 -13 11 -23 14 -23 8z"/>
<path d="M8110 5471 c0 -6 4 -13 10 -16 6 -3 7 1 4 9 -7 18 -14 21 -14 7z"/>
<path d="M3623 5365 c-3 -9 -3 -18 -1 -21 3 -3 8 4 11 16 6 23 -1 27 -10 5z"/>
<path d="M8220 5367 c0 -2 14 -16 32 -33 l32 -29 -25 32 c-20 27 -39 41 -39
30z"/>
<path d="M3640 5330 c-9 -6 -10 -10 -3 -10 6 0 15 5 18 10 8 12 4 12 -15 0z"/>
<path d="M3545 5310 c3 -5 8 -10 11 -10 2 0 4 5 4 10 0 6 -5 10 -11 10 -5 0
-7 -4 -4 -10z"/>
<path d="M3586 5299 c3 -5 12 -9 21 -9 19 0 9 13 -12 16 -8 1 -13 -2 -9 -7z"/>
<path d="M3469 5297 c-1 -4 -2 -10 -3 -14 -1 -5 -5 -14 -10 -22 -7 -10 -4 -12
14 -6 17 6 21 4 14 -6 -6 -12 -5 -12 9 0 9 7 17 19 17 25 0 6 -5 4 -10 -4 -9
-14 -11 -13 -14 9 -1 12 -16 26 -17 18z"/>
<path d="M3636 5233 c-6 -14 -5 -15 5 -6 7 7 10 15 7 18 -3 3 -9 -2 -12 -12z"/>
<path d="M3448 5223 c7 -3 16 -2 19 1 4 3 -2 6 -13 5 -11 0 -14 -3 -6 -6z"/>
<path d="M3515 5211 c-3 -5 -1 -12 5 -16 6 -4 8 -10 6 -14 -3 -4 1 -8 9 -8 20
0 19 13 -1 21 -8 3 -12 10 -9 16 3 5 4 10 1 10 -3 0 -7 -4 -11 -9z"/>
<path d="M3520 5151 c0 -7 -7 -11 -15 -8 -16 7 -31 -8 -17 -17 12 -7 49 21 39
30 -4 4 -7 2 -7 -5z"/>
<path d="M3476 5099 c4 -7 44 0 44 7 0 2 -11 3 -24 2 -14 -1 -23 -5 -20 -9z"/>
<path d="M3511 5058 c-13 -22 -13 -22 6 -6 15 14 22 15 33 5 12 -10 12 -9 1 6
-17 22 -23 22 -40 -5z"/>
<path d="M8505 5060 c3 -5 8 -10 11 -10 2 0 4 5 4 10 0 6 -5 10 -11 10 -5 0
-7 -4 -4 -10z"/>
<path d="M3555 5029 c-4 -6 -5 -12 -2 -15 2 -3 7 2 10 11 7 17 1 20 -8 4z"/>
<path d="M3300 5013 c0 -15 -2 -16 -10 -3 -8 13 -10 12 -10 -2 0 -10 5 -18 11
-18 5 0 7 -4 4 -10 -8 -13 1 -13 26 0 24 14 24 27 -1 40 -17 9 -20 8 -20 -7z"/>
<path d="M3494 5009 c-9 -20 -11 -21 -27 -5 -14 14 -17 15 -17 3 0 -8 8 -17
18 -19 24 -7 53 14 43 30 -5 9 -10 6 -17 -9z"/>
<path d="M3255 5001 c-3 -6 -11 -8 -17 -5 -7 5 -8 2 -4 -5 5 -7 14 -10 22 -7
8 3 14 -1 14 -9 0 -9 -6 -12 -17 -8 -11 4 -14 3 -9 -6 4 -6 16 -9 27 -6 32 10
21 -3 -17 -21 -24 -12 -31 -19 -23 -25 9 -5 10 -11 2 -21 -6 -7 -13 -17 -15
-23 -1 -5 -7 -9 -11 -7 -5 1 -6 -2 -2 -8 3 -6 11 -8 16 -5 5 3 6 -1 2 -11 -5
-14 -3 -15 15 -5 28 15 42 14 42 -3 0 -11 5 -12 24 -3 29 14 28 16 -10 23 -33
6 -45 14 -22 14 19 0 17 28 -3 41 -10 8 -9 9 8 4 12 -3 24 -1 28 5 3 5 12 10
18 10 7 0 6 -4 -3 -10 -9 -6 -10 -10 -3 -10 6 0 14 4 17 9 11 17 64 -10 59
-30 -6 -21 15 -36 22 -16 3 7 1 25 -4 39 -5 14 -6 29 -1 34 5 5 2 15 -7 23
-13 12 -14 9 -10 -18 4 -22 1 -31 -9 -31 -8 0 -11 6 -7 15 3 10 0 15 -8 13 -8
-2 -13 4 -11 12 3 11 1 12 -8 4 -18 -18 -50 -4 -70 28 -11 18 -20 25 -25 19z
m152 -133 c-3 -8 -6 -5 -6 6 -1 11 2 17 5 13 3 -3 4 -12 1 -19z"/>
<path d="M3423 4991 c-10 -17 -9 -20 15 -24 22 -4 24 -3 11 6 -9 7 -14 18 -12
25 7 18 0 15 -14 -7z"/>
<path d="M3503 4965 c0 -7 6 -11 14 -8 7 3 13 6 13 8 0 2 -6 5 -13 8 -8 3 -14
-1 -14 -8z"/>
<path d="M3440 4939 c0 -5 5 -7 10 -4 6 3 10 8 10 11 0 2 -4 4 -10 4 -5 0 -10
-5 -10 -11z"/>
<path d="M8694 4871 c16 -17 32 -29 34 -26 7 7 -18 34 -42 47 -16 8 -14 3 8
-21z"/>
<path d="M3305 4880 c-3 -5 -1 -10 4 -10 6 0 11 5 11 10 0 6 -2 10 -4 10 -3 0
-8 -4 -11 -10z"/>
<path d="M3535 4859 c-4 -6 -5 -12 -2 -15 2 -3 7 2 10 11 7 17 1 20 -8 4z"/>
<path d="M3320 4855 c0 -8 29 -12 39 -5 9 5 4 8 -13 8 -14 0 -26 -2 -26 -3z"/>
<path d="M3424 4842 c4 -6 -2 -17 -14 -24 -11 -7 -20 -20 -20 -28 1 -11 3 -10
11 4 8 13 13 15 19 6 4 -6 16 -10 26 -7 17 4 17 6 -4 12 -17 6 -20 11 -12 20
8 10 8 15 -1 21 -8 4 -9 3 -5 -4z"/>
<path d="M3466 4840 c6 -8 13 -22 16 -30 3 -9 7 -10 11 -3 4 6 -3 19 -16 29
-12 11 -17 12 -11 4z"/>
<path d="M3315 4806 c11 -8 23 -12 27 -10 13 8 18 -15 8 -40 -6 -17 -6 -26 0
-26 6 0 11 5 11 10 3 20 4 25 11 36 4 6 -2 18 -13 27 -12 11 -19 12 -19 5 0
-9 -3 -9 -12 0 -7 7 -16 12 -22 12 -5 0 -1 -6 9 -14z"/>
<path d="M3306 4761 c-11 -12 -26 -17 -39 -14 -20 4 -20 3 -4 -7 9 -6 22 -8
27 -5 6 3 10 1 10 -4 0 -6 7 -11 15 -11 13 0 14 4 4 22 -10 18 -9 20 5 15 10
-4 16 -1 16 8 0 20 -14 19 -34 -4z"/>
<path d="M3400 4746 c0 -2 8 -10 18 -17 15 -13 16 -12 3 4 -13 16 -21 21 -21
13z"/>
<path d="M3288 4703 c6 -2 10 -9 7 -13 -3 -5 -12 -7 -20 -3 -11 4 -13 1 -9
-11 6 -15 8 -15 24 -1 9 8 20 12 24 8 4 -4 4 0 0 10 -3 9 -14 17 -23 16 -10 0
-11 -2 -3 -6z"/>
<path d="M3368 4703 c9 -4 10 -8 2 -18 -8 -10 -8 -15 1 -21 7 -4 9 -3 6 3 -8
12 17 36 26 26 4 -3 7 -2 7 4 0 6 -12 10 -27 10 -16 0 -22 -2 -15 -4z"/>
<path d="M3318 4659 c17 -18 15 -29 -5 -29 -9 0 -14 -3 -10 -6 8 -8 47 5 47
16 0 5 -10 15 -22 21 -19 9 -21 9 -10 -2z"/>
<path d="M3397 4649 c7 -7 15 -10 18 -7 3 3 -2 9 -12 12 -14 6 -15 5 -6 -5z"/>
<path d="M3252 4590 c0 -14 2 -19 5 -12 2 6 2 18 0 25 -3 6 -5 1 -5 -13z"/>
<path d="M3315 4571 c-6 -11 13 -26 22 -17 4 3 1 6 -6 6 -7 0 -9 5 -6 10 3 6
4 10 1 10 -3 0 -7 -4 -11 -9z"/>
<path d="M3193 4550 c-1 -11 2 -20 7 -20 4 0 7 7 6 15 -3 23 -12 26 -13 5z"/>
<path d="M3275 4480 c-3 -6 1 -7 9 -4 18 7 21 14 7 14 -6 0 -13 -4 -16 -10z"/>
<path d="M3202 4467 c-7 -8 -6 -16 4 -25 8 -7 14 -11 15 -10 10 38 0 58 -19
35z"/>
<path d="M3161 4444 c0 -11 3 -14 6 -6 3 7 2 16 -1 19 -3 4 -6 -2 -5 -13z"/>
<path d="M3280 4456 c0 -2 7 -9 15 -16 13 -11 14 -10 9 4 -5 14 -24 23 -24 12z"/>
<path d="M3165 4400 c3 -5 8 -10 11 -10 2 0 4 5 4 10 0 6 -5 10 -11 10 -5 0
-7 -4 -4 -10z"/>
<path d="M3139 4383 c-1 -5 -1 -11 0 -15 0 -5 -7 -8 -16 -8 -19 0 -75 -39 -57
-40 5 0 16 6 23 13 12 10 13 8 7 -8 -6 -19 -5 -19 11 1 10 12 27 26 38 32 11
6 14 12 7 12 -7 0 -10 5 -7 10 3 6 4 10 1 10 -3 0 -7 -3 -7 -7z"/>
<path d="M3050 4360 c0 -5 5 -10 10 -10 6 0 10 5 10 10 0 6 -4 10 -10 10 -5 0
-10 -4 -10 -10z"/>
<path d="M3174 4355 c-4 -8 -10 -13 -14 -10 -5 3 -11 2 -14 -3 -2 -4 5 -8 18
-8 14 0 23 6 23 18 2 22 -6 24 -13 3z"/>
<path d="M2993 4346 c0 -7 9 -18 19 -25 10 -6 18 -9 18 -6 0 3 -8 15 -18 26
-13 13 -19 15 -19 5z"/>
<path d="M2960 4329 c0 -6 -7 -9 -15 -5 -8 3 -14 0 -12 -7 1 -7 -6 -11 -15
-11 -10 1 -15 -2 -13 -7 3 -4 -3 -12 -12 -18 -14 -8 -15 -10 -3 -11 13 0 13
-1 0 -11 -12 -8 -11 -9 6 -5 15 5 21 2 21 -10 0 -9 -9 -19 -19 -22 -16 -4 -15
-6 8 -18 18 -9 31 -11 38 -5 7 6 23 8 37 5 24 -5 24 -4 1 5 -12 6 -25 17 -28
26 -3 8 -10 12 -15 9 -5 -3 -6 2 -3 10 10 26 34 27 59 2 19 -19 25 -21 29 -9
3 8 2 12 -3 9 -5 -3 -14 1 -21 9 -10 12 -10 15 3 15 9 0 19 5 23 12 4 7 3 8
-4 4 -7 -4 -12 -1 -12 8 0 9 -7 16 -15 16 -8 0 -15 5 -15 10 0 6 -4 10 -10 10
-5 0 -10 -5 -10 -11z m26 -31 c1 -11 -6 -15 -26 -14 -27 1 -28 2 -13 19 19 20
35 18 39 -5z m-49 -90 c-3 -8 -6 -5 -6 6 -1 11 2 17 5 13 3 -3 4 -12 1 -19z"/>
<path d="M3040 4304 c0 -15 26 -19 34 -5 3 5 -3 11 -14 14 -13 3 -20 0 -20 -9z"/>
<path d="M3160 4300 c-23 -18 -24 -19 -3 -14 12 3 24 12 27 20 7 18 6 18 -24
-6z"/>
<path d="M2956 4245 c4 -8 11 -15 16 -15 6 0 5 6 -2 15 -7 8 -14 15 -16 15 -2
0 -1 -7 2 -15z"/>
<path d="M3035 4230 c3 -5 14 -10 23 -10 15 0 15 2 2 10 -20 13 -33 13 -25 0z"/>
<path d="M3030 4200 c-9 -6 -10 -10 -3 -10 6 0 15 5 18 10 8 12 4 12 -15 0z"/>
<path d="M3000 4180 c0 -13 18 -22 24 -11 3 5 -1 11 -9 15 -8 3 -15 1 -15 -4z"/>
<path d="M3050 4180 c0 -5 5 -10 11 -10 5 0 7 5 4 10 -3 6 -8 10 -11 10 -2 0
-4 -4 -4 -10z"/>
<path d="M2892 4171 c-11 -7 -11 -9 0 -14 9 -3 15 1 15 9 0 8 -1 14 -1 14 -1
0 -7 -4 -14 -9z"/>
<path d="M2939 4167 c6 -8 8 -17 4 -20 -3 -4 1 -7 11 -7 14 0 15 4 6 20 -6 11
-16 20 -22 20 -7 0 -7 -4 1 -13z"/>
<path d="M2933 4115 c0 -8 4 -12 9 -9 5 3 6 10 3 15 -9 13 -12 11 -12 -6z"/>
<path d="M3017 4085 c6 -11 8 -26 6 -32 -3 -7 0 -13 6 -13 12 0 5 40 -10 54
-9 8 -9 6 -2 -9z"/>
<path d="M2902 4068 c-7 -7 -12 -17 -12 -22 0 -6 5 -3 11 8 9 15 13 16 20 5 6
-9 9 -10 9 -2 0 18 -15 24 -28 11z"/>
<path d="M2985 4070 c-4 -6 -10 -8 -15 -5 -4 3 -13 -2 -20 -10 -11 -13 -10
-14 5 -9 13 6 16 4 10 -6 -5 -8 -3 -11 6 -8 8 3 14 11 14 19 1 8 7 13 14 11 7
-1 10 2 6 8 -8 13 -12 13 -20 0z"/>
<path d="M2818 3963 c-3 -5 -5 -24 -7 -44 -2 -25 2 -38 13 -42 20 -8 33 13 15
24 -16 10 -19 29 -7 46 5 6 5 14 -1 17 -5 4 -11 3 -13 -1z"/>
<path d="M2900 3935 c-7 -8 -9 -15 -4 -15 5 0 2 -5 -6 -11 -13 -9 -13 -10 0
-6 8 2 15 10 15 18 1 8 7 13 14 11 7 -1 10 2 6 8 -8 13 -10 13 -25 -5z"/>
<path d="M2748 3906 c-24 -17 -23 -31 2 -33 24 -2 34 12 23 31 -7 12 -11 12
-25 2z"/>
<path d="M2955 3862 c3 -3 -1 -12 -7 -21 -8 -10 -4 -9 10 3 26 23 26 23 7 23
-8 0 -13 -3 -10 -5z"/>
<path d="M2654 3845 c-12 -9 -15 -18 -9 -22 6 -5 15 -18 22 -30 10 -17 10 -23
0 -27 -7 -3 -1 -3 12 0 15 4 21 2 17 -4 -3 -6 -2 -13 3 -16 13 -9 43 23 39 42
-4 18 -28 29 -28 12 0 -6 5 -8 10 -5 6 3 10 -1 10 -9 0 -24 -16 -27 -38 -5
-23 21 -29 54 -12 64 5 3 7 0 4 -8 -3 -8 2 -14 11 -14 8 0 15 4 15 9 0 5 8 4
18 -1 14 -7 21 -5 30 10 10 16 9 19 -3 19 -8 0 -15 -4 -15 -8 0 -10 -36 -9
-46 1 -11 10 -18 9 -40 -8z"/>
<path d="M2876 3844 c-4 -9 -4 -19 -1 -22 3 -3 5 0 5 7 0 14 31 11 43 -4 5 -6
7 -4 4 5 -2 8 -8 15 -13 15 -5 0 -14 4 -20 8 -7 4 -15 0 -18 -9z"/>
<path d="M2783 3824 c0 -19 2 -22 8 -13 8 11 12 10 24 -5 8 -11 15 -15 15 -8
0 13 -31 52 -41 52 -4 0 -6 -12 -6 -26z"/>
<path d="M2880 3795 c0 -2 6 -8 13 -14 10 -8 14 -7 14 2 0 8 -6 14 -14 14 -7
0 -13 -1 -13 -2z"/>
<path d="M2780 3786 c0 -2 7 -7 16 -10 8 -3 12 -2 9 4 -6 10 -25 14 -25 6z"/>
<path d="M2484 3745 c4 -24 16 -30 16 -7 0 12 -4 22 -9 22 -5 0 -8 -7 -7 -15z"/>
<path d="M2520 3730 c-9 -6 -10 -10 -3 -10 6 0 15 5 18 10 8 12 4 12 -15 0z"/>
<path d="M2623 3730 c9 -6 16 -14 13 -18 -2 -4 2 -13 10 -20 8 -7 14 -10 14
-6 0 3 7 1 15 -6 18 -15 20 -34 3 -24 -10 5 -10 3 0 -7 11 -12 14 -12 22 1 6
9 6 16 0 18 -6 2 -7 9 -4 14 4 7 2 8 -4 4 -7 -4 -12 -2 -12 3 0 6 -7 11 -16
11 -10 0 -14 6 -10 15 3 8 1 15 -3 15 -5 0 -18 3 -28 6 -17 5 -17 5 0 -6z"/>
<path d="M2704 3725 c-18 -14 -18 -14 4 -8 12 3 22 9 22 14 0 12 -3 11 -26 -6z"/>
<path d="M2795 3701 c-6 -11 13 -26 22 -17 4 3 1 6 -6 6 -7 0 -9 5 -6 10 3 6
4 10 1 10 -3 0 -7 -4 -11 -9z"/>
<path d="M2746 3681 c-3 -4 1 -17 10 -27 14 -18 15 -18 5 2 -6 12 -7 24 -4 28
3 3 4 6 0 6 -3 0 -8 -4 -11 -9z"/>
<path d="M2600 3649 c-13 -9 -13 -10 2 -6 23 8 30 -3 15 -22 -10 -14 -10 -14
4 -4 9 7 20 9 25 5 5 -4 0 3 -10 16 -11 12 -20 22 -20 22 -1 0 -8 -5 -16 -11z"/>
<path d="M2572 3617 c1 -15 6 -27 10 -27 9 0 5 36 -5 46 -4 4 -6 -5 -5 -19z"/>
<path d="M2717 3633 c-4 -3 -7 -11 -7 -17 0 -6 5 -5 12 2 6 6 9 14 7 17 -3 3
-9 2 -12 -2z"/>
<path d="M2542 3595 c-8 -9 -9 -15 -2 -16 5 -1 15 -3 20 -4 6 -1 12 -3 15 -4
3 0 1 -10 -5 -21 -8 -16 -8 -18 4 -14 9 4 16 -2 19 -18 4 -21 4 -20 6 5 0 15
-4 27 -11 27 -9 0 -8 3 2 9 8 6 18 7 24 4 5 -3 6 -1 2 6 -4 6 -12 9 -17 5 -13
-7 -41 15 -33 27 9 15 -10 9 -24 -6z"/>
<path d="M2660 3596 c0 -2 7 -7 16 -10 8 -3 12 -2 9 4 -6 10 -25 14 -25 6z"/>
<path d="M2520 3562 c0 -5 7 -9 15 -9 8 0 12 4 9 9 -3 4 -9 8 -15 8 -5 0 -9
-4 -9 -8z"/>
<path d="M2530 3490 c-8 -5 -10 -10 -5 -10 6 0 3 -5 -5 -10 -9 -6 -10 -10 -3
-10 7 0 17 9 23 20 12 23 11 24 -10 10z"/>
<path d="M2325 3480 c-19 -8 -19 -9 3 -9 12 -1 22 4 22 9 0 6 -1 10 -2 9 -2 0
-12 -4 -23 -9z"/>
<path d="M2447 3467 c-3 -8 1 -14 8 -14 7 0 11 6 8 14 -3 7 -6 13 -8 13 -2 0
-5 -6 -8 -13z"/>
<path d="M2468 3443 c-10 -2 -18 -8 -18 -13 0 -5 -8 -11 -17 -13 -14 -4 -12
-5 5 -6 12 0 22 4 22 9 0 6 7 10 15 10 8 0 15 5 15 10 0 6 -1 9 -2 9 -2 -1
-11 -3 -20 -6z"/>
<path d="M2500 3425 c0 -6 5 -16 12 -23 7 -7 8 -12 2 -12 -6 0 -11 -7 -11 -15
0 -20 4 -19 16 4 7 13 6 24 -4 37 -8 11 -15 14 -15 9z"/>
<path d="M2395 3390 c3 -5 8 -10 11 -10 2 0 4 5 4 10 0 6 -5 10 -11 10 -5 0
-7 -4 -4 -10z"/>
<path d="M2460 3391 c0 -7 -4 -9 -10 -6 -5 3 -10 1 -10 -4 0 -6 4 -11 9 -11
13 0 25 20 17 27 -3 4 -6 1 -6 -6z"/>
<path d="M2476 3363 c-6 -14 -5 -15 5 -6 7 7 10 15 7 18 -3 3 -9 -2 -12 -12z"/>
<path d="M2394 3329 c-3 -6 -2 -15 3 -20 5 -5 9 -1 9 11 0 23 -2 24 -12 9z"/>
<path d="M2431 3304 c0 -11 3 -14 6 -6 3 7 2 16 -1 19 -3 4 -6 -2 -5 -13z"/>
<path d="M2359 3262 c9 -7 10 -11 2 -17 -9 -5 -9 -10 -1 -20 8 -9 8 -15 0 -20
-5 -3 -10 -1 -10 6 0 7 -3 9 -7 6 -3 -4 -13 -1 -22 6 -12 10 -12 7 2 -12 20
-29 46 -36 48 -13 5 49 2 66 -11 70 -12 3 -13 2 -1 -6z"/>
<path d="M2275 3174 c41 -21 41 -21 19 -46 -12 -14 -13 -18 -3 -10 9 6 18 9
21 7 3 -3 5 3 4 14 -1 22 -32 50 -56 51 -8 0 -2 -7 15 -16z"/>
<path d="M2426 3177 c3 -10 9 -15 12 -12 3 3 0 11 -7 18 -10 9 -11 8 -5 -6z"/>
<path d="M2268 3153 c6 -2 9 -10 6 -15 -4 -7 -2 -8 5 -4 13 9 5 26 -12 25 -9
0 -8 -2 1 -6z"/>
<path d="M2330 3136 c0 -8 5 -18 12 -22 7 -5 8 -3 3 6 -4 7 -2 16 6 21 11 7
10 9 -3 9 -10 0 -18 -6 -18 -14z"/>
<path d="M2245 3130 c3 -5 8 -10 11 -10 2 0 4 5 4 10 0 6 -5 10 -11 10 -5 0
-7 -4 -4 -10z"/>
<path d="M2214 3112 c3 -6 0 -12 -6 -15 -7 -2 -1 -4 14 -3 34 1 34 2 7 17 -13
6 -19 7 -15 1z"/>
<path d="M2335 3080 c-3 -5 -3 -10 1 -10 3 0 -4 -9 -17 -21 l-24 -21 24 16
c14 9 26 22 27 31 3 17 -2 19 -11 5z"/>
<path d="M2210 3030 c0 -5 5 -10 11 -10 5 0 7 5 4 10 -3 6 -8 10 -11 10 -2 0
-4 -4 -4 -10z"/>
<path d="M2250 3030 c0 -5 5 -10 11 -10 5 0 7 5 4 10 -3 6 -8 10 -11 10 -2 0
-4 -4 -4 -10z"/>
<path d="M2249 2978 c-5 -18 -6 -38 -1 -34 7 8 12 36 6 36 -2 0 -4 -1 -5 -2z"/>
<path d="M2060 2836 c0 -2 8 -10 18 -17 15 -13 16 -12 3 4 -13 16 -21 21 -21
13z"/>
<path d="M2065 2790 c3 -5 8 -10 11 -10 2 0 4 5 4 10 0 6 -5 10 -11 10 -5 0
-7 -4 -4 -10z"/>
<path d="M2060 2766 c0 -2 7 -7 16 -10 8 -3 12 -2 9 4 -6 10 -25 14 -25 6z"/>
<path d="M1849 2723 c-13 -16 -12 -17 4 -4 16 13 21 21 13 21 -2 0 -10 -8 -17
-17z"/>
<path d="M1735 2670 c-4 -6 -11 -7 -17 -4 -7 4 -8 2 -4 -5 6 -9 11 -9 22 0 14
11 18 19 10 19 -3 0 -8 -5 -11 -10z"/>
<path d="M1770 2659 c0 -5 5 -7 10 -4 6 3 10 8 10 11 0 2 -4 4 -10 4 -5 0 -10
-5 -10 -11z"/>
<path d="M1540 2595 c-7 -9 -10 -18 -7 -21 3 -3 10 4 17 15 13 25 8 27 -10 6z"/>
<path d="M1600 2589 c0 -5 -4 -7 -10 -4 -16 10 -11 -1 7 -16 11 -10 14 -10 9
-1 -4 6 -2 12 3 12 6 0 11 5 11 10 0 6 -4 10 -10 10 -5 0 -10 -5 -10 -11z"/>
<path d="M1674 2580 c0 -13 4 -16 10 -10 7 7 7 13 0 20 -6 6 -10 3 -10 -10z"/>
<path d="M1559 2568 c-4 -15 -3 -25 2 -22 4 2 12 -4 18 -13 9 -16 10 -16 11 5
0 13 -4 21 -9 17 -5 -3 -11 5 -13 17 -3 21 -4 21 -9 -4z"/>
<path d="M1507 2554 c7 -3 9 -12 6 -20 -3 -8 0 -14 7 -14 6 0 8 5 5 10 -3 6 0
10 7 10 9 0 9 3 -2 10 -8 5 -19 9 -25 9 -5 0 -5 -3 2 -5z"/>
<path d="M1545 2521 c-3 -5 -2 -12 3 -15 5 -3 9 1 9 9 0 17 -3 19 -12 6z"/>
<path d="M1446 2512 c-3 -5 1 -9 9 -9 8 0 12 4 9 9 -3 4 -7 8 -9 8 -2 0 -6 -4
-9 -8z"/>
<path d="M1565 2490 c-8 -13 5 -13 25 0 13 8 13 10 -2 10 -9 0 -20 -4 -23 -10z"/>
<path d="M1480 2475 c0 -8 2 -15 4 -15 2 0 6 7 10 15 3 8 1 15 -4 15 -6 0 -10
-7 -10 -15z"/>
<path d="M1522 2434 c-14 -16 -5 -18 17 -5 7 5 9 11 5 14 -5 3 -15 -1 -22 -9z"/>
<path d="M1396 2427 c3 -10 9 -15 12 -12 3 3 0 11 -7 18 -10 9 -11 8 -5 -6z"/>
<path d="M1395 2391 c-3 -2 -5 -9 -5 -15 0 -7 3 -7 8 -1 11 15 45 12 59 -5 8
-10 12 -11 13 -3 0 6 -5 15 -12 19 -14 9 -57 12 -63 5z"/>
<path d="M1355 2380 c-16 -7 -17 -9 -3 -9 9 -1 20 4 23 9 7 11 7 11 -20 0z"/>
<path d="M1254 2359 c-3 -5 -10 -7 -15 -4 -8 6 -10 2 -13 -25 -1 -5 4 -10 9
-10 6 0 10 3 10 8 0 13 16 32 26 32 6 0 7 -5 3 -12 -5 -8 -2 -9 10 -5 10 4 23
7 28 7 6 0 8 3 5 7 -11 11 -56 12 -63 2z"/>
<path d="M1337 2354 c-11 -11 -8 -26 3 -19 6 3 10 1 10 -6 0 -7 3 -10 6 -6 3
3 2 13 -3 22 -5 8 -12 12 -16 9z"/>
<path d="M1185 2320 c-3 -5 -2 -10 4 -10 5 0 13 5 16 10 3 6 2 10 -4 10 -5 0
-13 -4 -16 -10z"/>
<path d="M1156 2303 c-6 -14 -5 -15 5 -6 7 7 10 15 7 18 -3 3 -9 -2 -12 -12z"/>
<path d="M1193 2285 c0 -8 4 -12 9 -9 5 3 6 10 3 15 -9 13 -12 11 -12 -6z"/>
<path d="M1255 2280 c-16 -7 -17 -9 -3 -9 9 -1 20 4 23 9 7 11 7 11 -20 0z"/>
<path d="M1007 2265 c-8 -19 13 -31 23 -14 9 14 4 29 -10 29 -4 0 -10 -7 -13
-15z"/>
<path d="M1160 2270 c-9 -6 -10 -10 -3 -10 6 0 15 5 18 10 8 12 4 12 -15 0z"/>
<path d="M1115 2237 c-14 -11 -15 -16 -5 -22 9 -5 11 -4 6 3 -4 7 -2 12 3 12
6 0 11 -5 11 -10 0 -6 6 -5 14 2 27 25 2 37 -29 15z"/>
<path d="M1081 2196 c-9 -10 -9 -16 -1 -21 6 -4 14 -4 17 -1 4 3 1 6 -7 6 -10
0 -10 3 0 15 7 8 10 15 7 15 -2 0 -10 -6 -16 -14z"/>
<path d="M990 2190 c0 -5 7 -7 15 -4 8 4 15 8 15 10 0 2 -7 4 -15 4 -8 0 -15
-4 -15 -10z"/>
<path d="M1023 2155 c-3 -9 -3 -18 -1 -21 3 -3 8 4 11 16 6 23 -1 27 -10 5z"/>
<path d="M854 2133 c4 -23 32 -29 40 -8 4 13 2 14 -14 5 -16 -9 -18 -8 -14 5
4 8 2 15 -4 15 -6 0 -9 -8 -8 -17z"/>
<path d="M941 2121 c-8 -5 -20 -7 -28 -4 -7 3 -13 0 -13 -7 0 -6 5 -8 10 -5 6
3 10 1 10 -4 0 -6 8 -11 18 -11 14 0 15 2 2 10 -13 8 -12 10 3 10 9 0 17 5 17
10 0 12 -1 12 -19 1z"/>
<path d="M726 2108 c-20 -11 -21 -28 -1 -28 8 0 15 -4 15 -10 0 -5 5 -10 12
-10 6 0 4 7 -5 18 -15 16 -15 19 -2 19 8 0 15 -3 15 -7 0 -4 7 -7 15 -7 22 0
18 10 -9 23 -15 7 -30 8 -40 2z"/>
<path d="M1026 2098 c3 -5 10 -6 15 -3 13 9 11 12 -6 12 -8 0 -12 -4 -9 -9z"/>
<path d="M837 2077 c4 -6 0 -8 -10 -4 -20 7 -23 -19 -6 -43 8 -12 9 -10 4 7
-5 19 -3 22 11 16 11 -4 15 -3 11 5 -4 6 1 12 10 14 15 3 14 5 -5 10 -14 4
-20 2 -15 -5z"/>
<path d="M885 2080 c-3 -6 1 -7 9 -4 18 7 21 14 7 14 -6 0 -13 -4 -16 -10z"/>
<path d="M949 2073 c-13 -16 -12 -17 4 -4 9 7 17 15 17 17 0 8 -8 3 -21 -13z"/>
<path d="M730 2040 c-12 -8 -11 -10 8 -10 12 0 22 5 22 10 0 13 -11 13 -30 0z"/>
<path d="M850 2016 c0 -8 4 -17 8 -20 4 -2 8 4 8 15 0 10 -4 19 -8 19 -4 0 -8
-6 -8 -14z"/>
<path d="M707 2013 c10 -3 10 -8 -1 -19 -16 -16 -30 -19 -22 -5 4 5 -3 7 -15
4 -19 -5 -19 -7 -5 -15 9 -5 14 -13 11 -19 -12 -18 8 -9 26 13 11 11 19 16 19
10 0 -7 4 -12 9 -12 12 0 9 33 -4 42 -5 4 -14 7 -20 7 -5 0 -4 -3 2 -6z"/>
<path d="M751 2005 c0 -5 3 -17 9 -25 5 -9 5 -19 -1 -27 -8 -8 -6 -19 5 -35
12 -17 16 -19 16 -6 0 9 -6 19 -12 22 -9 3 -7 9 6 20 11 9 15 16 9 16 -5 0
-15 10 -21 23 -6 12 -11 18 -11 12z"/>
<path d="M570 1974 c0 -8 -4 -13 -8 -10 -5 3 -9 -1 -9 -9 0 -17 13 -20 22 -5
3 5 12 7 20 3 22 -8 18 10 -5 25 -17 10 -20 10 -20 -4z"/>
<path d="M440 1936 c0 -13 -23 -28 -45 -30 -5 -1 -9 -9 -9 -18 1 -10 2 -27 3
-38 0 -12 8 -20 18 -20 13 0 14 3 5 12 -17 17 -15 30 6 25 9 -3 31 -8 47 -12
28 -6 29 -5 11 8 -18 13 -16 14 20 12 53 -3 56 -4 50 -13 -3 -5 1 -9 8 -9 7 0
12 10 12 21 -1 12 4 20 9 19 6 -1 11 10 12 25 2 24 1 24 -6 7 -12 -29 -43 -53
-48 -38 -2 7 -11 9 -20 6 -9 -4 -19 1 -25 11 -5 9 -14 14 -19 10 -6 -3 -3 -12
8 -19 17 -13 17 -14 -4 -8 -17 4 -21 11 -18 34 2 16 -1 29 -6 29 -5 0 -9 -6
-9 -14z"/>
<path d="M650 1905 c-7 -9 -11 -17 -9 -20 3 -2 10 5 17 15 14 24 10 26 -8 5z"/>
<path d="M715 1910 c-3 -5 -1 -10 4 -10 6 0 11 5 11 10 0 6 -2 10 -4 10 -3 0
-8 -4 -11 -10z"/>
<path d="M778 1883 c7 -3 16 -2 19 1 4 3 -2 6 -13 5 -11 0 -14 -3 -6 -6z"/>
<path d="M700 1861 c0 -6 4 -13 10 -16 6 -3 7 1 4 9 -7 18 -14 21 -14 7z"/>
<path d="M500 1850 c0 -5 5 -10 11 -10 5 0 7 5 4 10 -3 6 -8 10 -11 10 -2 0
-4 -4 -4 -10z"/>
<path d="M370 1821 c0 -14 26 -32 35 -23 5 4 5 -1 2 -10 -3 -10 -1 -20 5 -24
6 -4 8 -3 4 4 -3 6 -2 13 4 17 17 10 12 21 -15 33 -31 14 -35 15 -35 3z"/>
<path d="M241 1764 c0 -11 3 -14 6 -6 3 7 2 16 -1 19 -3 4 -6 -2 -5 -13z"/>
<path d="M324 1768 c-3 -4 2 -8 11 -8 9 0 13 -4 10 -10 -3 -5 -2 -10 4 -10 5
0 9 8 8 18 -1 19 -24 26 -33 10z"/>
<path d="M502 1761 c-11 -7 -11 -9 0 -14 9 -3 15 1 15 9 0 8 -1 14 -1 14 -1 0
-7 -4 -14 -9z"/>
<path d="M434 1729 c-3 -6 -1 -16 5 -22 9 -9 11 -8 6 5 -4 11 0 18 12 21 15 4
16 5 1 6 -9 0 -20 -4 -24 -10z"/>
<path d="M6 1722 c-8 -13 -2 -101 6 -95 7 3 8 103 1 103 -1 0 -4 -4 -7 -8z"/>
<path d="M353 1703 c0 -7 7 -13 14 -13 8 0 12 4 9 9 -4 5 0 11 6 14 7 3 4 5
-8 4 -11 -1 -21 -7 -21 -14z"/>
<path d="M416 1687 c3 -10 9 -15 12 -12 3 3 0 11 -7 18 -10 9 -11 8 -5 -6z"/>
<path d="M244 1655 c-16 -12 -17 -14 -3 -15 9 0 19 7 23 15 7 19 5 19 -20 0z"/>
<path d="M446 1652 c-3 -5 1 -9 9 -9 8 0 12 4 9 9 -3 4 -7 8 -9 8 -2 0 -6 -4
-9 -8z"/>
<path d="M207 1636 c-4 -10 -13 -13 -24 -10 -15 5 -16 4 -3 -5 11 -7 19 -6 29
4 8 8 12 17 9 20 -3 3 -8 -1 -11 -9z"/>
<path d="M284 1630 c0 -13 4 -16 10 -10 7 7 7 13 0 20 -6 6 -10 3 -10 -10z"/>
<path d="M130 1626 c0 -2 7 -7 16 -10 8 -3 12 -2 9 4 -6 10 -25 14 -25 6z"/>
<path d="M56 1599 c2 -4 -2 -10 -8 -12 -7 -3 -8 -6 -2 -6 5 -1 18 5 28 12 16
12 16 13 -3 13 -11 0 -18 -3 -15 -7z"/>
<path d="M78 1573 c7 -3 16 -2 19 1 4 3 -2 6 -13 5 -11 0 -14 -3 -6 -6z"/>
<path d="M19 1565 c-1 -3 -2 -8 -3 -12 -1 -5 -6 -15 -11 -23 -7 -11 -3 -11 18
3 28 18 36 11 15 -12 -8 -8 -8 -11 -2 -8 7 4 17 0 24 -8 7 -8 17 -12 23 -8 6
3 0 10 -13 15 -17 6 -21 11 -12 20 8 8 7 15 -6 24 -18 14 -31 17 -33 9z"/>
<path d="M20 1415 c-7 -9 -10 -18 -7 -21 3 -3 10 4 17 15 13 25 8 27 -10 6z"/>
</g>
</svg>
